<svg xmlns="http://www.w3.org/2000/svg" version="1.1" width="337" height="378">
<path d="M 4.592285 261.116211 Q 3.877930 262.340820 3.526123 263.557373 Q 3.174316 264.773926 3.174316 266.009277 Q 3.174316 267.239258 3.526123 268.458496 Q 3.877930 269.677734 4.592285 270.913086 L 3.732910 270.913086 Q 2.921875 269.634766 2.524414 268.423584 Q 2.126953 267.212402 2.126953 266.009277 Q 2.126953 264.811523 2.524414 263.597656 Q 2.921875 262.383789 3.732910 261.116211 Z " fill="rgb(0, 145, 146)" fill-opacity="1.000000" />
<path d="M 9.562012 274.202148 L 11.071289 276.221680 L 10.244141 276.221680 L 8.498535 274.202148 Z " fill="rgb(0, 145, 146)" fill-opacity="1.000000" />
<path d="M 23.562012 287.202148 L 25.071289 289.221680 L 24.244141 289.221680 L 22.498535 287.202148 Z " fill="rgb(0, 145, 146)" fill-opacity="1.000000" />
<path d="M 95.592285 339.116211 Q 94.877930 340.340820 94.526123 341.557373 Q 94.174316 342.773926 94.174316 344.009277 Q 94.174316 345.239258 94.526123 346.458496 Q 94.877930 347.677734 95.592285 348.913086 L 94.732910 348.913086 Q 93.921875 347.634766 93.524414 346.423584 Q 93.126953 345.212402 93.126953 344.009277 Q 93.126953 342.811523 93.524414 341.597656 Q 93.921875 340.383789 94.732910 339.116211 Z " fill="rgb(0, 145, 146)" fill-opacity="1.000000" />
<path d="M 100.562012 352.202148 L 102.071289 354.221680 L 101.244141 354.221680 L 99.498535 352.202148 Z " fill="rgb(0, 145, 146)" fill-opacity="1.000000" />
<path d="M 114.562012 365.202148 L 116.071289 367.221680 L 115.244141 367.221680 L 113.498535 365.202148 Z " fill="rgb(0, 145, 146)" fill-opacity="1.000000" />
<path d="M 118.892578 371.335938 L 118.892578 370.412109 L 125.729980 370.412109 L 125.729980 371.335938 Z " fill="rgb(0, 145, 146)" fill-opacity="1.000000" />
<path d="M 125.892578 371.335938 L 125.892578 370.412109 L 132.729980 370.412109 L 132.729980 371.335938 Z " fill="rgb(0, 145, 146)" fill-opacity="1.000000" />
<path d="M 132.892578 371.335938 L 132.892578 370.412109 L 139.729980 370.412109 L 139.729980 371.335938 Z " fill="rgb(0, 145, 146)" fill-opacity="1.000000" />
<path d="M 139.892578 371.335938 L 139.892578 370.412109 L 146.729980 370.412109 L 146.729980 371.335938 Z " fill="rgb(0, 145, 146)" fill-opacity="1.000000" />
<path d="M 146.892578 371.335938 L 146.892578 370.412109 L 153.729980 370.412109 L 153.729980 371.335938 Z " fill="rgb(0, 145, 146)" fill-opacity="1.000000" />
<path d="M 157.985352 365.631836 L 157.985352 368.978027 L 156.782227 368.978027 L 156.782227 365.631836 Z " fill="rgb(0, 145, 146)" fill-opacity="1.000000" />
<path d="M 107.089355 358.830078 L 108.979980 358.830078 L 108.979980 361.000000 L 107.089355 361.000000 Z " fill="rgb(0, 145, 146)" fill-opacity="1.000000" />
<path d="M 163.374023 359.061035 L 165.049805 359.061035 L 165.049805 360.484375 L 163.857422 362.799316 L 162.783203 362.804688 L 163.374023 360.484375 Z " fill="rgb(0, 145, 146)" fill-opacity="1.000000" />
<path d="M 171.985352 352.631836 L 171.985352 355.978027 L 170.782227 355.978027 L 170.782227 352.631836 Z " fill="rgb(0, 145, 146)" fill-opacity="1.000000" />
<path d="M 121.143066 340.872559 L 121.143066 343.885742 L 122.399902 343.885742 Q 123.151855 343.885742 123.573486 343.488281 Q 123.995117 343.090820 123.995117 342.376465 Q 123.995117 341.662109 123.576172 341.267334 Q 123.157227 340.872559 122.399902 340.872559 Z M 120.058105 339.980957 L 122.399902 339.980957 Q 123.742676 339.980957 124.435547 340.590576 Q 125.128418 341.200195 125.128418 342.376465 Q 125.128418 343.563477 124.438232 344.170410 Q 123.748047 344.777344 122.399902 344.777344 L 121.143066 344.777344 L 121.143066 348.000000 L 120.058105 348.000000 Z " fill="rgb(0, 83, 146)" fill-opacity="1.000000" />
<path d="M 131.645020 344.272461 L 131.645020 348.000000 L 130.651367 348.000000 L 130.651367 344.272461 Q 130.651367 343.461426 130.366699 343.080078 Q 130.082031 342.698730 129.475098 342.698730 Q 128.782227 342.698730 128.408936 343.190186 Q 128.035645 343.681641 128.035645 344.600098 L 128.035645 348.000000 L 127.047363 348.000000 L 127.047363 339.642578 L 128.035645 339.642578 L 128.035645 342.886719 Q 128.298828 342.371094 128.750000 342.105225 Q 129.201172 341.839355 129.818848 341.839355 Q 130.737305 341.839355 131.191162 342.443604 Q 131.645020 343.047852 131.645020 344.272461 Z " fill="rgb(0, 83, 146)" fill-opacity="1.000000" />
<path d="M 136.308594 342.677246 Q 135.556641 342.677246 135.169922 343.262695 Q 134.783203 343.848145 134.783203 344.997559 Q 134.783203 346.141602 135.169922 346.729736 Q 135.556641 347.317871 136.308594 347.317871 Q 137.065918 347.317871 137.452637 346.729736 Q 137.839355 346.141602 137.839355 344.997559 Q 137.839355 343.848145 137.452637 343.262695 Q 137.065918 342.677246 136.308594 342.677246 Z M 136.308594 341.839355 Q 137.560059 341.839355 138.223389 342.650391 Q 138.886719 343.461426 138.886719 344.997559 Q 138.886719 346.539062 138.226074 347.347412 Q 137.565430 348.155762 136.308594 348.155762 Q 135.057129 348.155762 134.396484 347.347412 Q 133.735840 346.539062 133.735840 344.997559 Q 133.735840 343.461426 134.396484 342.650391 Q 135.057129 341.839355 136.308594 341.839355 Z " fill="rgb(0, 83, 146)" fill-opacity="1.000000" />
<path d="M 145.645020 344.272461 L 145.645020 348.000000 L 144.651367 348.000000 L 144.651367 344.272461 Q 144.651367 343.461426 144.366699 343.080078 Q 144.082031 342.698730 143.475098 342.698730 Q 142.782227 342.698730 142.408936 343.190186 Q 142.035645 343.681641 142.035645 344.600098 L 142.035645 348.000000 L 141.047363 348.000000 L 141.047363 341.984375 L 142.035645 341.984375 L 142.035645 342.886719 Q 142.298828 342.371094 142.750000 342.105225 Q 143.201172 341.839355 143.818848 341.839355 Q 144.737305 341.839355 145.191162 342.443604 Q 145.645020 343.047852 145.645020 344.272461 Z " fill="rgb(0, 83, 146)" fill-opacity="1.000000" />
<path d="M 153.015625 344.498047 L 153.015625 344.981445 L 148.734863 344.981445 L 148.734863 345.013672 Q 148.691895 346.243652 149.204834 346.780762 Q 149.717773 347.317871 150.652344 347.317871 Q 151.125000 347.317871 151.640625 347.167480 Q 152.156250 347.017090 152.741699 346.710938 L 152.741699 347.693848 Q 152.177734 347.924805 151.654053 348.040283 Q 151.130371 348.155762 150.641602 348.155762 Q 149.239746 348.155762 148.450195 347.315186 Q 147.660645 346.474609 147.660645 344.997559 Q 147.660645 343.558105 148.434082 342.698730 Q 149.207520 341.839355 150.496582 341.839355 Q 151.645996 341.839355 152.309326 342.618164 Q 152.972656 343.396973 153.015625 344.498047 Z M 152.027344 344.208008 Q 151.962891 343.584961 151.573486 343.131104 Q 151.184082 342.677246 150.453613 342.677246 Q 149.739258 342.677246 149.277344 343.149902 Q 148.815430 343.622559 148.772461 344.213379 Z " fill="rgb(0, 83, 146)" fill-opacity="1.000000" />
<path d="M 176.869141 339.116211 L 177.728516 339.116211 Q 178.539551 340.383789 178.937012 341.597656 Q 179.334473 342.811523 179.334473 344.009277 Q 179.334473 345.217773 178.937012 346.431641 Q 178.539551 347.645508 177.728516 348.913086 L 176.869141 348.913086 Q 177.583496 347.666992 177.935303 346.447754 Q 178.287109 345.228516 178.287109 344.009277 Q 178.287109 342.784668 177.935303 341.565430 Q 177.583496 340.346191 176.869141 339.116211 Z " fill="rgb(0, 145, 146)" fill-opacity="1.000000" />
<path d="M 97.414551 338.319336 L 104.251953 324.300781 L 105.208008 324.300781 L 98.370605 338.319336 Z " fill="rgb(0, 145, 146)" fill-opacity="1.000000" />
<path d="M 175.208008 338.319336 L 174.251953 338.319336 L 167.414551 324.300781 L 168.370605 324.300781 Z " fill="rgb(0, 145, 146)" fill-opacity="1.000000" />
<path d="M 107.089355 319.830078 L 108.979980 319.830078 L 108.979980 322.000000 L 107.089355 322.000000 Z " fill="rgb(0, 145, 146)" fill-opacity="1.000000" />
<path d="M 111.892578 319.335938 L 111.892578 318.412109 L 118.729980 318.412109 L 118.729980 319.335938 Z " fill="rgb(0, 145, 146)" fill-opacity="1.000000" />
<path d="M 118.892578 319.335938 L 118.892578 318.412109 L 125.729980 318.412109 L 125.729980 319.335938 Z " fill="rgb(0, 145, 146)" fill-opacity="1.000000" />
<path d="M 125.892578 319.335938 L 125.892578 318.412109 L 132.729980 318.412109 L 132.729980 319.335938 Z " fill="rgb(0, 145, 146)" fill-opacity="1.000000" />
<path d="M 132.892578 319.335938 L 132.892578 318.412109 L 139.729980 318.412109 L 139.729980 319.335938 Z " fill="rgb(0, 145, 146)" fill-opacity="1.000000" />
<path d="M 139.892578 319.335938 L 139.892578 318.412109 L 146.729980 318.412109 L 146.729980 319.335938 Z " fill="rgb(0, 145, 146)" fill-opacity="1.000000" />
<path d="M 146.892578 319.335938 L 146.892578 318.412109 L 153.729980 318.412109 L 153.729980 319.335938 Z " fill="rgb(0, 145, 146)" fill-opacity="1.000000" />
<path d="M 153.892578 319.335938 L 153.892578 318.412109 L 160.729980 318.412109 L 160.729980 319.335938 Z " fill="rgb(0, 145, 146)" fill-opacity="1.000000" />
<path d="M 163.089355 319.830078 L 164.979980 319.830078 L 164.979980 322.000000 L 163.089355 322.000000 Z " fill="rgb(0, 145, 146)" fill-opacity="1.000000" />
<path d="M 136.308594 309.418945 L 133.032227 302.866211 L 139.590332 302.866211 Z " fill="rgb(255, 147, 0)" fill-opacity="1.000000" />
<path d="M 27.892578 293.335938 L 27.892578 292.412109 L 34.729980 292.412109 L 34.729980 293.335938 Z " fill="rgb(0, 145, 146)" fill-opacity="1.000000" />
<path d="M 34.892578 293.335938 L 34.892578 292.412109 L 41.729980 292.412109 L 41.729980 293.335938 Z " fill="rgb(0, 145, 146)" fill-opacity="1.000000" />
<path d="M 41.892578 293.335938 L 41.892578 292.412109 L 48.729980 292.412109 L 48.729980 293.335938 Z " fill="rgb(0, 145, 146)" fill-opacity="1.000000" />
<path d="M 48.892578 293.335938 L 48.892578 292.412109 L 55.729980 292.412109 L 55.729980 293.335938 Z " fill="rgb(0, 145, 146)" fill-opacity="1.000000" />
<path d="M 55.892578 293.335938 L 55.892578 292.412109 L 62.729980 292.412109 L 62.729980 293.335938 Z " fill="rgb(0, 145, 146)" fill-opacity="1.000000" />
<path d="M 66.985352 287.631836 L 66.985352 290.978027 L 65.782227 290.978027 L 65.782227 287.631836 Z " fill="rgb(0, 145, 146)" fill-opacity="1.000000" />
<path d="M 135.878906 299.319336 L 135.878906 285.300781 L 136.738281 285.300781 L 136.738281 299.319336 Z " fill="rgb(255, 147, 0)" fill-opacity="1.000000" />
<path d="M 268.562012 287.202148 L 270.071289 289.221680 L 269.244141 289.221680 L 267.498535 287.202148 Z " fill="rgb(0, 145, 146)" fill-opacity="1.000000" />
<path d="M 272.892578 293.335938 L 272.892578 292.412109 L 279.729980 292.412109 L 279.729980 293.335938 Z " fill="rgb(0, 145, 146)" fill-opacity="1.000000" />
<path d="M 279.892578 293.335938 L 279.892578 292.412109 L 286.729980 292.412109 L 286.729980 293.335938 Z " fill="rgb(0, 145, 146)" fill-opacity="1.000000" />
<path d="M 286.892578 293.335938 L 286.892578 292.412109 L 293.729980 292.412109 L 293.729980 293.335938 Z " fill="rgb(0, 145, 146)" fill-opacity="1.000000" />
<path d="M 293.892578 293.335938 L 293.892578 292.412109 L 300.729980 292.412109 L 300.729980 293.335938 Z " fill="rgb(0, 145, 146)" fill-opacity="1.000000" />
<path d="M 300.892578 293.335938 L 300.892578 292.412109 L 307.729980 292.412109 L 307.729980 293.335938 Z " fill="rgb(0, 145, 146)" fill-opacity="1.000000" />
<path d="M 311.985352 287.631836 L 311.985352 290.978027 L 310.782227 290.978027 L 310.782227 287.631836 Z " fill="rgb(0, 145, 146)" fill-opacity="1.000000" />
<path d="M 16.089355 280.830078 L 17.979980 280.830078 L 17.979980 283.000000 L 16.089355 283.000000 Z " fill="rgb(0, 145, 146)" fill-opacity="1.000000" />
<path d="M 72.374023 281.061035 L 74.049805 281.061035 L 74.049805 282.484375 L 72.857422 284.799316 L 71.783203 284.804688 L 72.374023 282.484375 Z " fill="rgb(0, 145, 146)" fill-opacity="1.000000" />
<path d="M 80.985352 274.631836 L 80.985352 277.978027 L 79.782227 277.978027 L 79.782227 274.631836 Z " fill="rgb(0, 145, 146)" fill-opacity="1.000000" />
<path d="M 135.878906 286.319336 L 135.878906 272.300781 L 136.738281 272.300781 L 136.738281 286.319336 Z " fill="rgb(255, 147, 0)" fill-opacity="1.000000" />
<path d="M 254.562012 274.202148 L 256.071289 276.221680 L 255.244141 276.221680 L 253.498535 274.202148 Z " fill="rgb(0, 145, 146)" fill-opacity="1.000000" />
<path d="M 261.089355 280.830078 L 262.979980 280.830078 L 262.979980 283.000000 L 261.089355 283.000000 Z " fill="rgb(0, 145, 146)" fill-opacity="1.000000" />
<path d="M 317.374023 281.061035 L 319.049805 281.061035 L 319.049805 282.484375 L 317.857422 284.799316 L 316.783203 284.804688 L 317.374023 282.484375 Z " fill="rgb(0, 145, 146)" fill-opacity="1.000000" />
<path d="M 325.985352 274.631836 L 325.985352 277.978027 L 324.782227 277.978027 L 324.782227 274.631836 Z " fill="rgb(0, 145, 146)" fill-opacity="1.000000" />
<path d="M 36.079590 261.980957 L 40.532227 261.980957 L 40.532227 262.894043 L 38.851074 262.894043 L 38.851074 269.086914 L 40.532227 269.086914 L 40.532227 270.000000 L 36.079590 270.000000 L 36.079590 269.086914 L 37.760742 269.086914 L 37.760742 262.894043 L 36.079590 262.894043 Z " fill="rgb(0, 83, 146)" fill-opacity="1.000000" />
<path d="M 44.143066 262.872559 L 44.143066 265.885742 L 45.399902 265.885742 Q 46.151855 265.885742 46.573486 265.488281 Q 46.995117 265.090820 46.995117 264.376465 Q 46.995117 263.662109 46.576172 263.267334 Q 46.157227 262.872559 45.399902 262.872559 Z M 43.058105 261.980957 L 45.399902 261.980957 Q 46.742676 261.980957 47.435547 262.590576 Q 48.128418 263.200195 48.128418 264.376465 Q 48.128418 265.563477 47.438232 266.170410 Q 46.748047 266.777344 45.399902 266.777344 L 44.143066 266.777344 L 44.143066 270.000000 L 43.058105 270.000000 Z " fill="rgb(0, 83, 146)" fill-opacity="1.000000" />
<path d="M 85.869141 261.116211 L 86.728516 261.116211 Q 87.539551 262.383789 87.937012 263.597656 Q 88.334473 264.811523 88.334473 266.009277 Q 88.334473 267.217773 87.937012 268.431641 Q 87.539551 269.645508 86.728516 270.913086 L 85.869141 270.913086 Q 86.583496 269.666992 86.935303 268.447754 Q 87.287109 267.228516 87.287109 266.009277 Q 87.287109 264.784668 86.935303 263.565430 Q 86.583496 262.346191 85.869141 261.116211 Z " fill="rgb(0, 145, 146)" fill-opacity="1.000000" />
<path d="M 135.878906 273.319336 L 135.878906 259.300781 L 136.738281 259.300781 L 136.738281 273.319336 Z " fill="rgb(255, 147, 0)" fill-opacity="1.000000" />
<path d="M 238.032227 267.142578 L 244.590332 263.866211 L 244.590332 270.418945 Z " fill="rgb(255, 147, 0)" fill-opacity="1.000000" />
<path d="M 249.592285 261.116211 Q 248.877930 262.340820 248.526123 263.557373 Q 248.174316 264.773926 248.174316 266.009277 Q 248.174316 267.239258 248.526123 268.458496 Q 248.877930 269.677734 249.592285 270.913086 L 248.732910 270.913086 Q 247.921875 269.634766 247.524414 268.423584 Q 247.126953 267.212402 247.126953 266.009277 Q 247.126953 264.811523 247.524414 263.597656 Q 247.921875 262.383789 248.732910 261.116211 Z " fill="rgb(0, 145, 146)" fill-opacity="1.000000" />
<path d="M 269.308594 262.937012 L 268.164551 267.040527 L 270.452637 267.040527 Z M 268.653320 261.980957 L 269.969238 261.980957 L 272.423828 270.000000 L 271.301270 270.000000 L 270.710449 267.910645 L 267.901367 267.910645 L 267.321289 270.000000 L 266.198730 270.000000 Z " fill="rgb(0, 83, 146)" fill-opacity="1.000000" />
<path d="M 277.608398 264.752441 L 277.608398 261.642578 L 278.596680 261.642578 L 278.596680 270.000000 L 277.608398 270.000000 L 277.608398 269.242676 Q 277.361328 269.688477 276.950439 269.922119 Q 276.539551 270.155762 276.002441 270.155762 Q 274.912109 270.155762 274.286377 269.309814 Q 273.660645 268.463867 273.660645 266.976074 Q 273.660645 265.509766 274.289062 264.674561 Q 274.917480 263.839355 276.002441 263.839355 Q 276.544922 263.839355 276.958496 264.072998 Q 277.372070 264.306641 277.608398 264.752441 Z M 274.702637 266.997559 Q 274.702637 268.146973 275.067871 268.732422 Q 275.433105 269.317871 276.147461 269.317871 Q 276.861816 269.317871 277.235107 268.727051 Q 277.608398 268.136230 277.608398 266.997559 Q 277.608398 265.853516 277.235107 265.265381 Q 276.861816 264.677246 276.147461 264.677246 Q 275.433105 264.677246 275.067871 265.262695 Q 274.702637 265.848145 274.702637 266.997559 Z " fill="rgb(0, 83, 146)" fill-opacity="1.000000" />
<path d="M 284.608398 264.752441 L 284.608398 261.642578 L 285.596680 261.642578 L 285.596680 270.000000 L 284.608398 270.000000 L 284.608398 269.242676 Q 284.361328 269.688477 283.950439 269.922119 Q 283.539551 270.155762 283.002441 270.155762 Q 281.912109 270.155762 281.286377 269.309814 Q 280.660645 268.463867 280.660645 266.976074 Q 280.660645 265.509766 281.289062 264.674561 Q 281.917480 263.839355 283.002441 263.839355 Q 283.544922 263.839355 283.958496 264.072998 Q 284.372070 264.306641 284.608398 264.752441 Z M 281.702637 266.997559 Q 281.702637 268.146973 282.067871 268.732422 Q 282.433105 269.317871 283.147461 269.317871 Q 283.861816 269.317871 284.235107 268.727051 Q 284.608398 268.136230 284.608398 266.997559 Q 284.608398 265.853516 284.235107 265.265381 Q 283.861816 264.677246 283.147461 264.677246 Q 282.433105 264.677246 282.067871 265.262695 Q 281.702637 265.848145 281.702637 266.997559 Z " fill="rgb(0, 83, 146)" fill-opacity="1.000000" />
<path d="M 293.203613 265.225098 Q 292.886719 264.978027 292.559082 264.865234 Q 292.231445 264.752441 291.839355 264.752441 Q 290.915527 264.752441 290.426758 265.332520 Q 289.937988 265.912598 289.937988 267.008301 L 289.937988 270.000000 L 288.944336 270.000000 L 288.944336 263.984375 L 289.937988 263.984375 L 289.937988 265.160645 Q 290.185059 264.521484 290.697998 264.180420 Q 291.210938 263.839355 291.914551 263.839355 Q 292.279785 263.839355 292.596680 263.930664 Q 292.913574 264.021973 293.203613 264.215332 Z " fill="rgb(0, 83, 146)" fill-opacity="1.000000" />
<path d="M 300.015625 266.498047 L 300.015625 266.981445 L 295.734863 266.981445 L 295.734863 267.013672 Q 295.691895 268.243652 296.204834 268.780762 Q 296.717773 269.317871 297.652344 269.317871 Q 298.125000 269.317871 298.640625 269.167480 Q 299.156250 269.017090 299.741699 268.710938 L 299.741699 269.693848 Q 299.177734 269.924805 298.654053 270.040283 Q 298.130371 270.155762 297.641602 270.155762 Q 296.239746 270.155762 295.450195 269.315186 Q 294.660645 268.474609 294.660645 266.997559 Q 294.660645 265.558105 295.434082 264.698730 Q 296.207520 263.839355 297.496582 263.839355 Q 298.645996 263.839355 299.309326 264.618164 Q 299.972656 265.396973 300.015625 266.498047 Z M 299.027344 266.208008 Q 298.962891 265.584961 298.573486 265.131104 Q 298.184082 264.677246 297.453613 264.677246 Q 296.739258 264.677246 296.277344 265.149902 Q 295.815430 265.622559 295.772461 266.213379 Z " fill="rgb(0, 83, 146)" fill-opacity="1.000000" />
<path d="M 306.226074 264.193848 L 306.226074 265.160645 Q 305.801758 264.913574 305.372070 264.790039 Q 304.942383 264.666504 304.496582 264.666504 Q 303.825195 264.666504 303.494873 264.884033 Q 303.164551 265.101562 303.164551 265.547363 Q 303.164551 265.950195 303.411621 266.148926 Q 303.658691 266.347656 304.641602 266.535645 L 305.039062 266.610840 Q 305.774902 266.750488 306.153564 267.169434 Q 306.532227 267.588379 306.532227 268.259766 Q 306.532227 269.151367 305.898438 269.653564 Q 305.264648 270.155762 304.136719 270.155762 Q 303.690918 270.155762 303.202148 270.061768 Q 302.713379 269.967773 302.144043 269.779785 L 302.144043 268.759277 Q 302.697266 269.043945 303.202148 269.186279 Q 303.707031 269.328613 304.158203 269.328613 Q 304.813477 269.328613 305.173340 269.062744 Q 305.533203 268.796875 305.533203 268.318848 Q 305.533203 267.631348 304.217285 267.368164 L 304.174316 267.357422 L 303.803711 267.282227 Q 302.949707 267.115723 302.557617 266.720947 Q 302.165527 266.326172 302.165527 265.644043 Q 302.165527 264.779297 302.750977 264.309326 Q 303.336426 263.839355 304.421387 263.839355 Q 304.904785 263.839355 305.350586 263.927979 Q 305.796387 264.016602 306.226074 264.193848 Z " fill="rgb(0, 83, 146)" fill-opacity="1.000000" />
<path d="M 313.226074 264.193848 L 313.226074 265.160645 Q 312.801758 264.913574 312.372070 264.790039 Q 311.942383 264.666504 311.496582 264.666504 Q 310.825195 264.666504 310.494873 264.884033 Q 310.164551 265.101562 310.164551 265.547363 Q 310.164551 265.950195 310.411621 266.148926 Q 310.658691 266.347656 311.641602 266.535645 L 312.039062 266.610840 Q 312.774902 266.750488 313.153564 267.169434 Q 313.532227 267.588379 313.532227 268.259766 Q 313.532227 269.151367 312.898438 269.653564 Q 312.264648 270.155762 311.136719 270.155762 Q 310.690918 270.155762 310.202148 270.061768 Q 309.713379 269.967773 309.144043 269.779785 L 309.144043 268.759277 Q 309.697266 269.043945 310.202148 269.186279 Q 310.707031 269.328613 311.158203 269.328613 Q 311.813477 269.328613 312.173340 269.062744 Q 312.533203 268.796875 312.533203 268.318848 Q 312.533203 267.631348 311.217285 267.368164 L 311.174316 267.357422 L 310.803711 267.282227 Q 309.949707 267.115723 309.557617 266.720947 Q 309.165527 266.326172 309.165527 265.644043 Q 309.165527 264.779297 309.750977 264.309326 Q 310.336426 263.839355 311.421387 263.839355 Q 311.904785 263.839355 312.350586 263.927979 Q 312.796387 264.016602 313.226074 264.193848 Z " fill="rgb(0, 83, 146)" fill-opacity="1.000000" />
<path d="M 330.869141 261.116211 L 331.728516 261.116211 Q 332.539551 262.383789 332.937012 263.597656 Q 333.334473 264.811523 333.334473 266.009277 Q 333.334473 267.217773 332.937012 268.431641 Q 332.539551 269.645508 331.728516 270.913086 L 330.869141 270.913086 Q 331.583496 269.666992 331.935303 268.447754 Q 332.287109 267.228516 332.287109 266.009277 Q 332.287109 264.784668 331.935303 263.565430 Q 331.583496 262.346191 330.869141 261.116211 Z " fill="rgb(0, 145, 146)" fill-opacity="1.000000" />
<path d="M 11.592285 40.116211 Q 10.877930 41.340820 10.526123 42.557373 Q 10.174316 43.773926 10.174316 45.009277 Q 10.174316 46.239258 10.526123 47.458496 Q 10.877930 48.677734 11.592285 49.913086 L 10.732910 49.913086 Q 9.921875 48.634766 9.524414 47.423584 Q 9.126953 46.212402 9.126953 45.009277 Q 9.126953 43.811523 9.524414 42.597656 Q 9.921875 41.383789 10.732910 40.116211 Z " fill="rgb(0, 145, 146)" fill-opacity="1.000000" />
<path d="M 6.414551 260.319336 L 13.251953 246.300781 L 14.208008 246.300781 L 7.370605 260.319336 Z " fill="rgb(0, 145, 146)" fill-opacity="1.000000" />
<path d="M 84.208008 260.319336 L 83.251953 260.319336 L 76.414551 246.300781 L 77.370605 246.300781 Z " fill="rgb(0, 145, 146)" fill-opacity="1.000000" />
<path d="M 135.878906 260.319336 L 135.878906 246.300781 L 136.738281 246.300781 L 136.738281 260.319336 Z " fill="rgb(255, 147, 0)" fill-opacity="1.000000" />
<path d="M 238.208008 260.319336 L 237.251953 260.319336 L 230.414551 246.300781 L 231.370605 246.300781 Z " fill="rgb(255, 147, 0)" fill-opacity="1.000000" />
<path d="M 251.414551 260.319336 L 258.251953 246.300781 L 259.208008 246.300781 L 252.370605 260.319336 Z " fill="rgb(0, 145, 146)" fill-opacity="1.000000" />
<path d="M 329.208008 260.319336 L 328.251953 260.319336 L 321.414551 246.300781 L 322.370605 246.300781 Z " fill="rgb(0, 145, 146)" fill-opacity="1.000000" />
<path d="M 16.562012 53.202148 L 18.071289 55.221680 L 17.244141 55.221680 L 15.498535 53.202148 Z " fill="rgb(0, 145, 146)" fill-opacity="1.000000" />
<path d="M 17.861816 189.824707 Q 17.861816 190.490723 18.106201 190.829102 Q 18.350586 191.167480 18.828613 191.167480 L 19.983398 191.167480 L 19.983398 192.000000 L 18.731934 192.000000 Q 17.845703 192.000000 17.359619 191.433350 Q 16.873535 190.866699 16.873535 189.824707 L 16.873535 184.383789 L 15.289062 184.383789 L 15.289062 183.610352 L 17.861816 183.610352 Z " fill="rgb(0, 150, 255)" fill-opacity="1.000000" />
<path d="M 16.089355 241.830078 L 17.979980 241.830078 L 17.979980 244.000000 L 16.089355 244.000000 Z " fill="rgb(0, 145, 146)" fill-opacity="1.000000" />
<path d="M 20.892578 241.335938 L 20.892578 240.412109 L 27.729980 240.412109 L 27.729980 241.335938 Z " fill="rgb(0, 145, 146)" fill-opacity="1.000000" />
<path d="M 27.892578 241.335938 L 27.892578 240.412109 L 34.729980 240.412109 L 34.729980 241.335938 Z " fill="rgb(0, 145, 146)" fill-opacity="1.000000" />
<path d="M 34.892578 241.335938 L 34.892578 240.412109 L 41.729980 240.412109 L 41.729980 241.335938 Z " fill="rgb(0, 145, 146)" fill-opacity="1.000000" />
<path d="M 41.892578 241.335938 L 41.892578 240.412109 L 48.729980 240.412109 L 48.729980 241.335938 Z " fill="rgb(0, 145, 146)" fill-opacity="1.000000" />
<path d="M 48.892578 241.335938 L 48.892578 240.412109 L 55.729980 240.412109 L 55.729980 241.335938 Z " fill="rgb(0, 145, 146)" fill-opacity="1.000000" />
<path d="M 55.892578 241.335938 L 55.892578 240.412109 L 62.729980 240.412109 L 62.729980 241.335938 Z " fill="rgb(0, 145, 146)" fill-opacity="1.000000" />
<path d="M 62.892578 241.335938 L 62.892578 240.412109 L 69.729980 240.412109 L 69.729980 241.335938 Z " fill="rgb(0, 145, 146)" fill-opacity="1.000000" />
<path d="M 72.089355 241.830078 L 73.979980 241.830078 L 73.979980 244.000000 L 72.089355 244.000000 Z " fill="rgb(0, 145, 146)" fill-opacity="1.000000" />
<path d="M 103.645020 240.272461 L 103.645020 244.000000 L 102.651367 244.000000 L 102.651367 240.272461 Q 102.651367 239.461426 102.366699 239.080078 Q 102.082031 238.698730 101.475098 238.698730 Q 100.782227 238.698730 100.408936 239.190186 Q 100.035645 239.681641 100.035645 240.600098 L 100.035645 244.000000 L 99.047363 244.000000 L 99.047363 235.642578 L 100.035645 235.642578 L 100.035645 238.886719 Q 100.298828 238.371094 100.750000 238.105225 Q 101.201172 237.839355 101.818848 237.839355 Q 102.737305 237.839355 103.191162 238.443604 Q 103.645020 239.047852 103.645020 240.272461 Z " fill="rgb(0, 150, 255)" fill-opacity="1.000000" />
<path d="M 108.770508 240.976074 L 108.442871 240.976074 Q 107.578125 240.976074 107.140381 241.279541 Q 106.702637 241.583008 106.702637 242.184570 Q 106.702637 242.727051 107.030273 243.027832 Q 107.357910 243.328613 107.937988 243.328613 Q 108.754395 243.328613 109.221680 242.761963 Q 109.688965 242.195312 109.694336 241.196289 L 109.694336 240.976074 Z M 110.687988 240.567871 L 110.687988 244.000000 L 109.694336 244.000000 L 109.694336 243.108398 Q 109.377441 243.645508 108.896729 243.900635 Q 108.416016 244.155762 107.728516 244.155762 Q 106.810059 244.155762 106.262207 243.637451 Q 105.714355 243.119141 105.714355 242.249023 Q 105.714355 241.244629 106.388428 240.723633 Q 107.062500 240.202637 108.367676 240.202637 L 109.694336 240.202637 L 109.694336 240.046875 Q 109.688965 239.327148 109.329102 239.002197 Q 108.969238 238.677246 108.179688 238.677246 Q 107.674805 238.677246 107.159180 238.822266 Q 106.643555 238.967285 106.154785 239.246582 L 106.154785 238.258301 Q 106.702637 238.048828 107.204834 237.944092 Q 107.707031 237.839355 108.179688 237.839355 Q 108.926270 237.839355 109.455322 238.059570 Q 109.984375 238.279785 110.312012 238.720215 Q 110.516113 238.988770 110.602051 239.383545 Q 110.687988 239.778320 110.687988 240.567871 Z " fill="rgb(0, 150, 255)" fill-opacity="1.000000" />
<path d="M 117.226074 238.193848 L 117.226074 239.160645 Q 116.801758 238.913574 116.372070 238.790039 Q 115.942383 238.666504 115.496582 238.666504 Q 114.825195 238.666504 114.494873 238.884033 Q 114.164551 239.101562 114.164551 239.547363 Q 114.164551 239.950195 114.411621 240.148926 Q 114.658691 240.347656 115.641602 240.535645 L 116.039062 240.610840 Q 116.774902 240.750488 117.153564 241.169434 Q 117.532227 241.588379 117.532227 242.259766 Q 117.532227 243.151367 116.898438 243.653564 Q 116.264648 244.155762 115.136719 244.155762 Q 114.690918 244.155762 114.202148 244.061768 Q 113.713379 243.967773 113.144043 243.779785 L 113.144043 242.759277 Q 113.697266 243.043945 114.202148 243.186279 Q 114.707031 243.328613 115.158203 243.328613 Q 115.813477 243.328613 116.173340 243.062744 Q 116.533203 242.796875 116.533203 242.318848 Q 116.533203 241.631348 115.217285 241.368164 L 115.174316 241.357422 L 114.803711 241.282227 Q 113.949707 241.115723 113.557617 240.720947 Q 113.165527 240.326172 113.165527 239.644043 Q 113.165527 238.779297 113.750977 238.309326 Q 114.336426 237.839355 115.421387 237.839355 Q 115.904785 237.839355 116.350586 237.927979 Q 116.796387 238.016602 117.226074 238.193848 Z " fill="rgb(0, 150, 255)" fill-opacity="1.000000" />
<path d="M 125.574219 245.020508 L 125.574219 245.933594 L 119.000000 245.933594 L 119.000000 245.020508 Z " fill="rgb(0, 150, 255)" fill-opacity="1.000000" />
<path d="M 128.014160 243.242676 L 128.014160 246.288086 L 127.020508 246.288086 L 127.020508 237.984375 L 128.014160 237.984375 L 128.014160 238.752441 Q 128.261230 238.306641 128.672119 238.072998 Q 129.083008 237.839355 129.620117 237.839355 Q 130.710449 237.839355 131.330811 238.682617 Q 131.951172 239.525879 131.951172 241.019043 Q 131.951172 242.485352 131.328125 243.320557 Q 130.705078 244.155762 129.620117 244.155762 Q 129.072266 244.155762 128.661377 243.922119 Q 128.250488 243.688477 128.014160 243.242676 Z M 130.914551 240.997559 Q 130.914551 239.848145 130.552002 239.262695 Q 130.189453 238.677246 129.475098 238.677246 Q 128.755371 238.677246 128.384766 239.265381 Q 128.014160 239.853516 128.014160 240.997559 Q 128.014160 242.136230 128.384766 242.727051 Q 128.755371 243.317871 129.475098 243.317871 Q 130.189453 243.317871 130.552002 242.732422 Q 130.914551 242.146973 130.914551 240.997559 Z " fill="rgb(0, 150, 255)" fill-opacity="1.000000" />
<path d="M 138.645020 240.272461 L 138.645020 244.000000 L 137.651367 244.000000 L 137.651367 240.272461 Q 137.651367 239.461426 137.366699 239.080078 Q 137.082031 238.698730 136.475098 238.698730 Q 135.782227 238.698730 135.408936 239.190186 Q 135.035645 239.681641 135.035645 240.600098 L 135.035645 244.000000 L 134.047363 244.000000 L 134.047363 235.642578 L 135.035645 235.642578 L 135.035645 238.886719 Q 135.298828 238.371094 135.750000 238.105225 Q 136.201172 237.839355 136.818848 237.839355 Q 137.737305 237.839355 138.191162 238.443604 Q 138.645020 239.047852 138.645020 240.272461 Z " fill="rgb(0, 150, 255)" fill-opacity="1.000000" />
<path d="M 143.308594 238.677246 Q 142.556641 238.677246 142.169922 239.262695 Q 141.783203 239.848145 141.783203 240.997559 Q 141.783203 242.141602 142.169922 242.729736 Q 142.556641 243.317871 143.308594 243.317871 Q 144.065918 243.317871 144.452637 242.729736 Q 144.839355 242.141602 144.839355 240.997559 Q 144.839355 239.848145 144.452637 239.262695 Q 144.065918 238.677246 143.308594 238.677246 Z M 143.308594 237.839355 Q 144.560059 237.839355 145.223389 238.650391 Q 145.886719 239.461426 145.886719 240.997559 Q 145.886719 242.539062 145.226074 243.347412 Q 144.565430 244.155762 143.308594 244.155762 Q 142.057129 244.155762 141.396484 243.347412 Q 140.735840 242.539062 140.735840 240.997559 Q 140.735840 239.461426 141.396484 238.650391 Q 142.057129 237.839355 143.308594 237.839355 Z " fill="rgb(0, 150, 255)" fill-opacity="1.000000" />
<path d="M 152.645020 240.272461 L 152.645020 244.000000 L 151.651367 244.000000 L 151.651367 240.272461 Q 151.651367 239.461426 151.366699 239.080078 Q 151.082031 238.698730 150.475098 238.698730 Q 149.782227 238.698730 149.408936 239.190186 Q 149.035645 239.681641 149.035645 240.600098 L 149.035645 244.000000 L 148.047363 244.000000 L 148.047363 237.984375 L 149.035645 237.984375 L 149.035645 238.886719 Q 149.298828 238.371094 149.750000 238.105225 Q 150.201172 237.839355 150.818848 237.839355 Q 151.737305 237.839355 152.191162 238.443604 Q 152.645020 239.047852 152.645020 240.272461 Z " fill="rgb(0, 150, 255)" fill-opacity="1.000000" />
<path d="M 160.015625 240.498047 L 160.015625 240.981445 L 155.734863 240.981445 L 155.734863 241.013672 Q 155.691895 242.243652 156.204834 242.780762 Q 156.717773 243.317871 157.652344 243.317871 Q 158.125000 243.317871 158.640625 243.167480 Q 159.156250 243.017090 159.741699 242.710938 L 159.741699 243.693848 Q 159.177734 243.924805 158.654053 244.040283 Q 158.130371 244.155762 157.641602 244.155762 Q 156.239746 244.155762 155.450195 243.315186 Q 154.660645 242.474609 154.660645 240.997559 Q 154.660645 239.558105 155.434082 238.698730 Q 156.207520 237.839355 157.496582 237.839355 Q 158.645996 237.839355 159.309326 238.618164 Q 159.972656 239.396973 160.015625 240.498047 Z M 159.027344 240.208008 Q 158.962891 239.584961 158.573486 239.131104 Q 158.184082 238.677246 157.453613 238.677246 Q 156.739258 238.677246 156.277344 239.149902 Q 155.815430 239.622559 155.772461 240.213379 Z " fill="rgb(0, 150, 255)" fill-opacity="1.000000" />
<path d="M 231.208008 247.319336 L 230.251953 247.319336 L 223.414551 233.300781 L 224.370605 233.300781 Z " fill="rgb(255, 147, 0)" fill-opacity="1.000000" />
<path d="M 261.089355 241.830078 L 262.979980 241.830078 L 262.979980 244.000000 L 261.089355 244.000000 Z " fill="rgb(0, 145, 146)" fill-opacity="1.000000" />
<path d="M 265.892578 241.335938 L 265.892578 240.412109 L 272.729980 240.412109 L 272.729980 241.335938 Z " fill="rgb(0, 145, 146)" fill-opacity="1.000000" />
<path d="M 272.892578 241.335938 L 272.892578 240.412109 L 279.729980 240.412109 L 279.729980 241.335938 Z " fill="rgb(0, 145, 146)" fill-opacity="1.000000" />
<path d="M 279.892578 241.335938 L 279.892578 240.412109 L 286.729980 240.412109 L 286.729980 241.335938 Z " fill="rgb(0, 145, 146)" fill-opacity="1.000000" />
<path d="M 286.892578 241.335938 L 286.892578 240.412109 L 293.729980 240.412109 L 293.729980 241.335938 Z " fill="rgb(0, 145, 146)" fill-opacity="1.000000" />
<path d="M 293.892578 241.335938 L 293.892578 240.412109 L 300.729980 240.412109 L 300.729980 241.335938 Z " fill="rgb(0, 145, 146)" fill-opacity="1.000000" />
<path d="M 300.892578 241.335938 L 300.892578 240.412109 L 307.729980 240.412109 L 307.729980 241.335938 Z " fill="rgb(0, 145, 146)" fill-opacity="1.000000" />
<path d="M 307.892578 241.335938 L 307.892578 240.412109 L 314.729980 240.412109 L 314.729980 241.335938 Z " fill="rgb(0, 145, 146)" fill-opacity="1.000000" />
<path d="M 317.089355 241.830078 L 318.979980 241.830078 L 318.979980 244.000000 L 317.089355 244.000000 Z " fill="rgb(0, 145, 146)" fill-opacity="1.000000" />
<path d="M 42.032227 231.418945 L 42.032227 224.866211 L 48.590332 228.142578 Z " fill="rgb(255, 147, 0)" fill-opacity="1.000000" />
<path d="M 135.878906 234.319336 L 135.878906 220.300781 L 136.738281 220.300781 L 136.738281 234.319336 Z " fill="rgb(255, 147, 0)" fill-opacity="1.000000" />
<path d="M 224.208008 234.319336 L 223.251953 234.319336 L 216.414551 220.300781 L 217.370605 220.300781 Z " fill="rgb(255, 147, 0)" fill-opacity="1.000000" />
<path d="M 48.414551 221.319336 L 55.251953 207.300781 L 56.208008 207.300781 L 49.370605 221.319336 Z " fill="rgb(255, 147, 0)" fill-opacity="1.000000" />
<path d="M 135.878906 221.319336 L 135.878906 207.300781 L 136.738281 207.300781 L 136.738281 221.319336 Z " fill="rgb(255, 147, 0)" fill-opacity="1.000000" />
<path d="M 217.208008 221.319336 L 216.251953 221.319336 L 209.414551 207.300781 L 210.370605 207.300781 Z " fill="rgb(255, 147, 0)" fill-opacity="1.000000" />
<path d="M 55.414551 208.319336 L 62.251953 194.300781 L 63.208008 194.300781 L 56.370605 208.319336 Z " fill="rgb(255, 147, 0)" fill-opacity="1.000000" />
<path d="M 135.878906 208.319336 L 135.878906 194.300781 L 136.738281 194.300781 L 136.738281 208.319336 Z " fill="rgb(255, 147, 0)" fill-opacity="1.000000" />
<path d="M 173.645020 201.272461 L 173.645020 205.000000 L 172.651367 205.000000 L 172.651367 201.272461 Q 172.651367 200.461426 172.366699 200.080078 Q 172.082031 199.698730 171.475098 199.698730 Q 170.782227 199.698730 170.408936 200.190186 Q 170.035645 200.681641 170.035645 201.600098 L 170.035645 205.000000 L 169.047363 205.000000 L 169.047363 196.642578 L 170.035645 196.642578 L 170.035645 199.886719 Q 170.298828 199.371094 170.750000 199.105225 Q 171.201172 198.839355 171.818848 198.839355 Q 172.737305 198.839355 173.191162 199.443604 Q 173.645020 200.047852 173.645020 201.272461 Z " fill="rgb(0, 150, 255)" fill-opacity="1.000000" />
<path d="M 178.770508 201.976074 L 178.442871 201.976074 Q 177.578125 201.976074 177.140381 202.279541 Q 176.702637 202.583008 176.702637 203.184570 Q 176.702637 203.727051 177.030273 204.027832 Q 177.357910 204.328613 177.937988 204.328613 Q 178.754395 204.328613 179.221680 203.761963 Q 179.688965 203.195312 179.694336 202.196289 L 179.694336 201.976074 Z M 180.687988 201.567871 L 180.687988 205.000000 L 179.694336 205.000000 L 179.694336 204.108398 Q 179.377441 204.645508 178.896729 204.900635 Q 178.416016 205.155762 177.728516 205.155762 Q 176.810059 205.155762 176.262207 204.637451 Q 175.714355 204.119141 175.714355 203.249023 Q 175.714355 202.244629 176.388428 201.723633 Q 177.062500 201.202637 178.367676 201.202637 L 179.694336 201.202637 L 179.694336 201.046875 Q 179.688965 200.327148 179.329102 200.002197 Q 178.969238 199.677246 178.179688 199.677246 Q 177.674805 199.677246 177.159180 199.822266 Q 176.643555 199.967285 176.154785 200.246582 L 176.154785 199.258301 Q 176.702637 199.048828 177.204834 198.944092 Q 177.707031 198.839355 178.179688 198.839355 Q 178.926270 198.839355 179.455322 199.059570 Q 179.984375 199.279785 180.312012 199.720215 Q 180.516113 199.988770 180.602051 200.383545 Q 180.687988 200.778320 180.687988 201.567871 Z " fill="rgb(0, 150, 255)" fill-opacity="1.000000" />
<path d="M 187.226074 199.193848 L 187.226074 200.160645 Q 186.801758 199.913574 186.372070 199.790039 Q 185.942383 199.666504 185.496582 199.666504 Q 184.825195 199.666504 184.494873 199.884033 Q 184.164551 200.101562 184.164551 200.547363 Q 184.164551 200.950195 184.411621 201.148926 Q 184.658691 201.347656 185.641602 201.535645 L 186.039062 201.610840 Q 186.774902 201.750488 187.153564 202.169434 Q 187.532227 202.588379 187.532227 203.259766 Q 187.532227 204.151367 186.898438 204.653564 Q 186.264648 205.155762 185.136719 205.155762 Q 184.690918 205.155762 184.202148 205.061768 Q 183.713379 204.967773 183.144043 204.779785 L 183.144043 203.759277 Q 183.697266 204.043945 184.202148 204.186279 Q 184.707031 204.328613 185.158203 204.328613 Q 185.813477 204.328613 186.173340 204.062744 Q 186.533203 203.796875 186.533203 203.318848 Q 186.533203 202.631348 185.217285 202.368164 L 185.174316 202.357422 L 184.803711 202.282227 Q 183.949707 202.115723 183.557617 201.720947 Q 183.165527 201.326172 183.165527 200.644043 Q 183.165527 199.779297 183.750977 199.309326 Q 184.336426 198.839355 185.421387 198.839355 Q 185.904785 198.839355 186.350586 198.927979 Q 186.796387 199.016602 187.226074 199.193848 Z " fill="rgb(0, 150, 255)" fill-opacity="1.000000" />
<path d="M 195.574219 206.020508 L 195.574219 206.933594 L 189.000000 206.933594 L 189.000000 206.020508 Z " fill="rgb(0, 150, 255)" fill-opacity="1.000000" />
<path d="M 199.770508 201.976074 L 199.442871 201.976074 Q 198.578125 201.976074 198.140381 202.279541 Q 197.702637 202.583008 197.702637 203.184570 Q 197.702637 203.727051 198.030273 204.027832 Q 198.357910 204.328613 198.937988 204.328613 Q 199.754395 204.328613 200.221680 203.761963 Q 200.688965 203.195312 200.694336 202.196289 L 200.694336 201.976074 Z M 201.687988 201.567871 L 201.687988 205.000000 L 200.694336 205.000000 L 200.694336 204.108398 Q 200.377441 204.645508 199.896729 204.900635 Q 199.416016 205.155762 198.728516 205.155762 Q 197.810059 205.155762 197.262207 204.637451 Q 196.714355 204.119141 196.714355 203.249023 Q 196.714355 202.244629 197.388428 201.723633 Q 198.062500 201.202637 199.367676 201.202637 L 200.694336 201.202637 L 200.694336 201.046875 Q 200.688965 200.327148 200.329102 200.002197 Q 199.969238 199.677246 199.179688 199.677246 Q 198.674805 199.677246 198.159180 199.822266 Q 197.643555 199.967285 197.154785 200.246582 L 197.154785 199.258301 Q 197.702637 199.048828 198.204834 198.944092 Q 198.707031 198.839355 199.179688 198.839355 Q 199.926270 198.839355 200.455322 199.059570 Q 200.984375 199.279785 201.312012 199.720215 Q 201.516113 199.988770 201.602051 200.383545 Q 201.687988 200.778320 201.687988 201.567871 Z " fill="rgb(0, 150, 255)" fill-opacity="1.000000" />
<path d="M 207.608398 199.752441 L 207.608398 196.642578 L 208.596680 196.642578 L 208.596680 205.000000 L 207.608398 205.000000 L 207.608398 204.242676 Q 207.361328 204.688477 206.950439 204.922119 Q 206.539551 205.155762 206.002441 205.155762 Q 204.912109 205.155762 204.286377 204.309814 Q 203.660645 203.463867 203.660645 201.976074 Q 203.660645 200.509766 204.289062 199.674561 Q 204.917480 198.839355 206.002441 198.839355 Q 206.544922 198.839355 206.958496 199.072998 Q 207.372070 199.306641 207.608398 199.752441 Z M 204.702637 201.997559 Q 204.702637 203.146973 205.067871 203.732422 Q 205.433105 204.317871 206.147461 204.317871 Q 206.861816 204.317871 207.235107 203.727051 Q 207.608398 203.136230 207.608398 201.997559 Q 207.608398 200.853516 207.235107 200.265381 Q 206.861816 199.677246 206.147461 199.677246 Q 205.433105 199.677246 205.067871 200.262695 Q 204.702637 200.848145 204.702637 201.997559 Z " fill="rgb(0, 150, 255)" fill-opacity="1.000000" />
<path d="M 214.608398 199.752441 L 214.608398 196.642578 L 215.596680 196.642578 L 215.596680 205.000000 L 214.608398 205.000000 L 214.608398 204.242676 Q 214.361328 204.688477 213.950439 204.922119 Q 213.539551 205.155762 213.002441 205.155762 Q 211.912109 205.155762 211.286377 204.309814 Q 210.660645 203.463867 210.660645 201.976074 Q 210.660645 200.509766 211.289062 199.674561 Q 211.917480 198.839355 213.002441 198.839355 Q 213.544922 198.839355 213.958496 199.072998 Q 214.372070 199.306641 214.608398 199.752441 Z M 211.702637 201.997559 Q 211.702637 203.146973 212.067871 203.732422 Q 212.433105 204.317871 213.147461 204.317871 Q 213.861816 204.317871 214.235107 203.727051 Q 214.608398 203.136230 214.608398 201.997559 Q 214.608398 200.853516 214.235107 200.265381 Q 213.861816 199.677246 213.147461 199.677246 Q 212.433105 199.677246 212.067871 200.262695 Q 211.702637 200.848145 211.702637 201.997559 Z " fill="rgb(0, 150, 255)" fill-opacity="1.000000" />
<path d="M 223.203613 200.225098 Q 222.886719 199.978027 222.559082 199.865234 Q 222.231445 199.752441 221.839355 199.752441 Q 220.915527 199.752441 220.426758 200.332520 Q 219.937988 200.912598 219.937988 202.008301 L 219.937988 205.000000 L 218.944336 205.000000 L 218.944336 198.984375 L 219.937988 198.984375 L 219.937988 200.160645 Q 220.185059 199.521484 220.697998 199.180420 Q 221.210938 198.839355 221.914551 198.839355 Q 222.279785 198.839355 222.596680 198.930664 Q 222.913574 199.021973 223.203613 199.215332 Z " fill="rgb(0, 150, 255)" fill-opacity="1.000000" />
<path d="M 230.015625 201.498047 L 230.015625 201.981445 L 225.734863 201.981445 L 225.734863 202.013672 Q 225.691895 203.243652 226.204834 203.780762 Q 226.717773 204.317871 227.652344 204.317871 Q 228.125000 204.317871 228.640625 204.167480 Q 229.156250 204.017090 229.741699 203.710938 L 229.741699 204.693848 Q 229.177734 204.924805 228.654053 205.040283 Q 228.130371 205.155762 227.641602 205.155762 Q 226.239746 205.155762 225.450195 204.315186 Q 224.660645 203.474609 224.660645 201.997559 Q 224.660645 200.558105 225.434082 199.698730 Q 226.207520 198.839355 227.496582 198.839355 Q 228.645996 198.839355 229.309326 199.618164 Q 229.972656 200.396973 230.015625 201.498047 Z M 229.027344 201.208008 Q 228.962891 200.584961 228.573486 200.131104 Q 228.184082 199.677246 227.453613 199.677246 Q 226.739258 199.677246 226.277344 200.149902 Q 225.815430 200.622559 225.772461 201.213379 Z " fill="rgb(0, 150, 255)" fill-opacity="1.000000" />
<path d="M 236.226074 199.193848 L 236.226074 200.160645 Q 235.801758 199.913574 235.372070 199.790039 Q 234.942383 199.666504 234.496582 199.666504 Q 233.825195 199.666504 233.494873 199.884033 Q 233.164551 200.101562 233.164551 200.547363 Q 233.164551 200.950195 233.411621 201.148926 Q 233.658691 201.347656 234.641602 201.535645 L 235.039062 201.610840 Q 235.774902 201.750488 236.153564 202.169434 Q 236.532227 202.588379 236.532227 203.259766 Q 236.532227 204.151367 235.898438 204.653564 Q 235.264648 205.155762 234.136719 205.155762 Q 233.690918 205.155762 233.202148 205.061768 Q 232.713379 204.967773 232.144043 204.779785 L 232.144043 203.759277 Q 232.697266 204.043945 233.202148 204.186279 Q 233.707031 204.328613 234.158203 204.328613 Q 234.813477 204.328613 235.173340 204.062744 Q 235.533203 203.796875 235.533203 203.318848 Q 235.533203 202.631348 234.217285 202.368164 L 234.174316 202.357422 L 233.803711 202.282227 Q 232.949707 202.115723 232.557617 201.720947 Q 232.165527 201.326172 232.165527 200.644043 Q 232.165527 199.779297 232.750977 199.309326 Q 233.336426 198.839355 234.421387 198.839355 Q 234.904785 198.839355 235.350586 198.927979 Q 235.796387 199.016602 236.226074 199.193848 Z " fill="rgb(0, 150, 255)" fill-opacity="1.000000" />
<path d="M 243.226074 199.193848 L 243.226074 200.160645 Q 242.801758 199.913574 242.372070 199.790039 Q 241.942383 199.666504 241.496582 199.666504 Q 240.825195 199.666504 240.494873 199.884033 Q 240.164551 200.101562 240.164551 200.547363 Q 240.164551 200.950195 240.411621 201.148926 Q 240.658691 201.347656 241.641602 201.535645 L 242.039062 201.610840 Q 242.774902 201.750488 243.153564 202.169434 Q 243.532227 202.588379 243.532227 203.259766 Q 243.532227 204.151367 242.898438 204.653564 Q 242.264648 205.155762 241.136719 205.155762 Q 240.690918 205.155762 240.202148 205.061768 Q 239.713379 204.967773 239.144043 204.779785 L 239.144043 203.759277 Q 239.697266 204.043945 240.202148 204.186279 Q 240.707031 204.328613 241.158203 204.328613 Q 241.813477 204.328613 242.173340 204.062744 Q 242.533203 203.796875 242.533203 203.318848 Q 242.533203 202.631348 241.217285 202.368164 L 241.174316 202.357422 L 240.803711 202.282227 Q 239.949707 202.115723 239.557617 201.720947 Q 239.165527 201.326172 239.165527 200.644043 Q 239.165527 199.779297 239.750977 199.309326 Q 240.336426 198.839355 241.421387 198.839355 Q 241.904785 198.839355 242.350586 198.927979 Q 242.796387 199.016602 243.226074 199.193848 Z " fill="rgb(0, 150, 255)" fill-opacity="1.000000" />
<path d="M 24.308594 186.677246 Q 23.556641 186.677246 23.169922 187.262695 Q 22.783203 187.848145 22.783203 188.997559 Q 22.783203 190.141602 23.169922 190.729736 Q 23.556641 191.317871 24.308594 191.317871 Q 25.065918 191.317871 25.452637 190.729736 Q 25.839355 190.141602 25.839355 188.997559 Q 25.839355 187.848145 25.452637 187.262695 Q 25.065918 186.677246 24.308594 186.677246 Z M 24.308594 185.839355 Q 25.560059 185.839355 26.223389 186.650391 Q 26.886719 187.461426 26.886719 188.997559 Q 26.886719 190.539062 26.226074 191.347412 Q 25.565430 192.155762 24.308594 192.155762 Q 23.057129 192.155762 22.396484 191.347412 Q 21.735840 190.539062 21.735840 188.997559 Q 21.735840 187.461426 22.396484 186.650391 Q 23.057129 185.839355 24.308594 185.839355 Z " fill="rgb(0, 150, 255)" fill-opacity="1.000000" />
<path d="M 32.608398 188.943848 Q 32.608398 187.832031 32.245850 187.254639 Q 31.883301 186.677246 31.190430 186.677246 Q 30.465332 186.677246 30.083984 187.254639 Q 29.702637 187.832031 29.702637 188.943848 Q 29.702637 190.055664 30.086670 190.638428 Q 30.470703 191.221191 31.201172 191.221191 Q 31.883301 191.221191 32.245850 190.635742 Q 32.608398 190.050293 32.608398 188.943848 Z M 33.596680 191.613281 Q 33.596680 192.966797 32.957520 193.665039 Q 32.318359 194.363281 31.077637 194.363281 Q 30.669434 194.363281 30.223633 194.288086 Q 29.777832 194.212891 29.332031 194.067871 L 29.332031 193.090332 Q 29.858398 193.337402 30.288086 193.455566 Q 30.717773 193.573730 31.077637 193.573730 Q 31.877930 193.573730 32.243164 193.138672 Q 32.608398 192.703613 32.608398 191.758301 L 32.608398 191.715332 L 32.608398 191.043945 Q 32.372070 191.548828 31.963867 191.795898 Q 31.555664 192.042969 30.970215 192.042969 Q 29.917480 192.042969 29.289062 191.199707 Q 28.660645 190.356445 28.660645 188.943848 Q 28.660645 187.525879 29.289062 186.682617 Q 29.917480 185.839355 30.970215 185.839355 Q 31.550293 185.839355 31.953125 186.070312 Q 32.355957 186.301270 32.608398 186.784668 L 32.608398 186.005859 L 33.596680 186.005859 Z " fill="rgb(0, 150, 255)" fill-opacity="1.000000" />
<path d="M 39.608398 188.943848 Q 39.608398 187.832031 39.245850 187.254639 Q 38.883301 186.677246 38.190430 186.677246 Q 37.465332 186.677246 37.083984 187.254639 Q 36.702637 187.832031 36.702637 188.943848 Q 36.702637 190.055664 37.086670 190.638428 Q 37.470703 191.221191 38.201172 191.221191 Q 38.883301 191.221191 39.245850 190.635742 Q 39.608398 190.050293 39.608398 188.943848 Z M 40.596680 191.613281 Q 40.596680 192.966797 39.957520 193.665039 Q 39.318359 194.363281 38.077637 194.363281 Q 37.669434 194.363281 37.223633 194.288086 Q 36.777832 194.212891 36.332031 194.067871 L 36.332031 193.090332 Q 36.858398 193.337402 37.288086 193.455566 Q 37.717773 193.573730 38.077637 193.573730 Q 38.877930 193.573730 39.243164 193.138672 Q 39.608398 192.703613 39.608398 191.758301 L 39.608398 191.715332 L 39.608398 191.043945 Q 39.372070 191.548828 38.963867 191.795898 Q 38.555664 192.042969 37.970215 192.042969 Q 36.917480 192.042969 36.289062 191.199707 Q 35.660645 190.356445 35.660645 188.943848 Q 35.660645 187.525879 36.289062 186.682617 Q 36.917480 185.839355 37.970215 185.839355 Q 38.550293 185.839355 38.953125 186.070312 Q 39.355957 186.301270 39.608398 186.784668 L 39.608398 186.005859 L 40.596680 186.005859 Z " fill="rgb(0, 150, 255)" fill-opacity="1.000000" />
<path d="M 48.015625 188.498047 L 48.015625 188.981445 L 43.734863 188.981445 L 43.734863 189.013672 Q 43.691895 190.243652 44.204834 190.780762 Q 44.717773 191.317871 45.652344 191.317871 Q 46.125000 191.317871 46.640625 191.167480 Q 47.156250 191.017090 47.741699 190.710938 L 47.741699 191.693848 Q 47.177734 191.924805 46.654053 192.040283 Q 46.130371 192.155762 45.641602 192.155762 Q 44.239746 192.155762 43.450195 191.315186 Q 42.660645 190.474609 42.660645 188.997559 Q 42.660645 187.558105 43.434082 186.698730 Q 44.207520 185.839355 45.496582 185.839355 Q 46.645996 185.839355 47.309326 186.618164 Q 47.972656 187.396973 48.015625 188.498047 Z M 47.027344 188.208008 Q 46.962891 187.584961 46.573486 187.131104 Q 46.184082 186.677246 45.453613 186.677246 Q 44.739258 186.677246 44.277344 187.149902 Q 43.815430 187.622559 43.772461 188.213379 Z " fill="rgb(0, 150, 255)" fill-opacity="1.000000" />
<path d="M 53.608398 186.752441 L 53.608398 183.642578 L 54.596680 183.642578 L 54.596680 192.000000 L 53.608398 192.000000 L 53.608398 191.242676 Q 53.361328 191.688477 52.950439 191.922119 Q 52.539551 192.155762 52.002441 192.155762 Q 50.912109 192.155762 50.286377 191.309814 Q 49.660645 190.463867 49.660645 188.976074 Q 49.660645 187.509766 50.289062 186.674561 Q 50.917480 185.839355 52.002441 185.839355 Q 52.544922 185.839355 52.958496 186.072998 Q 53.372070 186.306641 53.608398 186.752441 Z M 50.702637 188.997559 Q 50.702637 190.146973 51.067871 190.732422 Q 51.433105 191.317871 52.147461 191.317871 Q 52.861816 191.317871 53.235107 190.727051 Q 53.608398 190.136230 53.608398 188.997559 Q 53.608398 187.853516 53.235107 187.265381 Q 52.861816 186.677246 52.147461 186.677246 Q 51.433105 186.677246 51.067871 187.262695 Q 50.702637 187.848145 50.702637 188.997559 Z " fill="rgb(0, 150, 255)" fill-opacity="1.000000" />
<path d="M 62.574219 193.020508 L 62.574219 193.933594 L 56.000000 193.933594 L 56.000000 193.020508 Z " fill="rgb(0, 150, 255)" fill-opacity="1.000000" />
<path d="M 64.697266 186.005859 L 67.227051 186.005859 L 67.227051 191.231934 L 69.187500 191.231934 L 69.187500 192.000000 L 64.278320 192.000000 L 64.278320 191.231934 L 66.238770 191.231934 L 66.238770 186.773926 L 64.697266 186.773926 Z M 66.238770 183.669434 L 67.227051 183.669434 L 67.227051 184.915527 L 66.238770 184.915527 Z " fill="rgb(0, 150, 255)" fill-opacity="1.000000" />
<path d="M 75.645020 188.272461 L 75.645020 192.000000 L 74.651367 192.000000 L 74.651367 188.272461 Q 74.651367 187.461426 74.366699 187.080078 Q 74.082031 186.698730 73.475098 186.698730 Q 72.782227 186.698730 72.408936 187.190186 Q 72.035645 187.681641 72.035645 188.600098 L 72.035645 192.000000 L 71.047363 192.000000 L 71.047363 185.984375 L 72.035645 185.984375 L 72.035645 186.886719 Q 72.298828 186.371094 72.750000 186.105225 Q 73.201172 185.839355 73.818848 185.839355 Q 74.737305 185.839355 75.191162 186.443604 Q 75.645020 187.047852 75.645020 188.272461 Z " fill="rgb(0, 150, 255)" fill-opacity="1.000000" />
<path d="M 83.574219 193.020508 L 83.574219 193.933594 L 77.000000 193.933594 L 77.000000 193.020508 Z " fill="rgb(0, 150, 255)" fill-opacity="1.000000" />
<path d="M 89.709473 183.642578 L 89.709473 184.464355 L 88.586914 184.464355 Q 88.055176 184.464355 87.848389 184.681885 Q 87.641602 184.899414 87.641602 185.452637 L 87.641602 185.984375 L 89.709473 185.984375 L 89.709473 186.752441 L 87.641602 186.752441 L 87.641602 192.000000 L 86.653320 192.000000 L 86.653320 186.752441 L 85.047363 186.752441 L 85.047363 185.984375 L 86.653320 185.984375 L 86.653320 185.565430 Q 86.653320 184.577148 87.107178 184.109863 Q 87.561035 183.642578 88.522461 183.642578 Z " fill="rgb(0, 150, 255)" fill-opacity="1.000000" />
<path d="M 97.203613 187.225098 Q 96.886719 186.978027 96.559082 186.865234 Q 96.231445 186.752441 95.839355 186.752441 Q 94.915527 186.752441 94.426758 187.332520 Q 93.937988 187.912598 93.937988 189.008301 L 93.937988 192.000000 L 92.944336 192.000000 L 92.944336 185.984375 L 93.937988 185.984375 L 93.937988 187.160645 Q 94.185059 186.521484 94.697998 186.180420 Q 95.210938 185.839355 95.914551 185.839355 Q 96.279785 185.839355 96.596680 185.930664 Q 96.913574 186.021973 97.203613 186.215332 Z " fill="rgb(0, 150, 255)" fill-opacity="1.000000" />
<path d="M 101.308594 186.677246 Q 100.556641 186.677246 100.169922 187.262695 Q 99.783203 187.848145 99.783203 188.997559 Q 99.783203 190.141602 100.169922 190.729736 Q 100.556641 191.317871 101.308594 191.317871 Q 102.065918 191.317871 102.452637 190.729736 Q 102.839355 190.141602 102.839355 188.997559 Q 102.839355 187.848145 102.452637 187.262695 Q 102.065918 186.677246 101.308594 186.677246 Z M 101.308594 185.839355 Q 102.560059 185.839355 103.223389 186.650391 Q 103.886719 187.461426 103.886719 188.997559 Q 103.886719 190.539062 103.226074 191.347412 Q 102.565430 192.155762 101.308594 192.155762 Q 100.057129 192.155762 99.396484 191.347412 Q 98.735840 190.539062 98.735840 188.997559 Q 98.735840 187.461426 99.396484 186.650391 Q 100.057129 185.839355 101.308594 185.839355 Z " fill="rgb(0, 150, 255)" fill-opacity="1.000000" />
<path d="M 108.630859 186.596680 Q 108.813477 186.209961 109.095459 186.024658 Q 109.377441 185.839355 109.774902 185.839355 Q 110.500000 185.839355 110.798096 186.400635 Q 111.096191 186.961914 111.096191 188.514160 L 111.096191 192.000000 L 110.193848 192.000000 L 110.193848 188.557129 Q 110.193848 187.284180 110.051514 186.975342 Q 109.909180 186.666504 109.533203 186.666504 Q 109.103516 186.666504 108.945068 186.996826 Q 108.786621 187.327148 108.786621 188.557129 L 108.786621 192.000000 L 107.884277 192.000000 L 107.884277 188.557129 Q 107.884277 187.268066 107.731201 186.967285 Q 107.578125 186.666504 107.180664 186.666504 Q 106.788574 186.666504 106.635498 186.996826 Q 106.482422 187.327148 106.482422 188.557129 L 106.482422 192.000000 L 105.585449 192.000000 L 105.585449 185.984375 L 106.482422 185.984375 L 106.482422 186.500000 Q 106.659668 186.177734 106.925537 186.008545 Q 107.191406 185.839355 107.529785 185.839355 Q 107.937988 185.839355 108.209229 186.027344 Q 108.480469 186.215332 108.630859 186.596680 Z " fill="rgb(0, 150, 255)" fill-opacity="1.000000" />
<path d="M 135.878906 195.319336 L 135.878906 181.300781 L 136.738281 181.300781 L 136.738281 195.319336 Z " fill="rgb(255, 147, 0)" fill-opacity="1.000000" />
<path d="M 203.208008 195.319336 L 202.251953 195.319336 L 195.414551 181.300781 L 196.370605 181.300781 Z " fill="rgb(255, 147, 0)" fill-opacity="1.000000" />
<path d="M 30.562012 66.202148 L 32.071289 68.221680 L 31.244141 68.221680 L 29.498535 66.202148 Z " fill="rgb(0, 145, 146)" fill-opacity="1.000000" />
<path d="M 69.414551 182.319336 L 76.251953 168.300781 L 77.208008 168.300781 L 70.370605 182.319336 Z " fill="rgb(255, 147, 0)" fill-opacity="1.000000" />
<path d="M 114.562012 170.202148 L 116.071289 172.221680 L 115.244141 172.221680 L 113.498535 170.202148 Z " fill="rgb(0, 145, 146)" fill-opacity="1.000000" />
<path d="M 118.892578 176.335938 L 118.892578 175.412109 L 125.729980 175.412109 L 125.729980 176.335938 Z " fill="rgb(0, 145, 146)" fill-opacity="1.000000" />
<path d="M 125.892578 176.335938 L 125.892578 175.412109 L 132.729980 175.412109 L 132.729980 176.335938 Z " fill="rgb(0, 145, 146)" fill-opacity="1.000000" />
<path d="M 132.892578 176.335938 L 132.892578 175.412109 L 139.729980 175.412109 L 139.729980 176.335938 Z " fill="rgb(0, 145, 146)" fill-opacity="1.000000" />
<path d="M 139.892578 176.335938 L 139.892578 175.412109 L 146.729980 175.412109 L 146.729980 176.335938 Z " fill="rgb(0, 145, 146)" fill-opacity="1.000000" />
<path d="M 146.892578 176.335938 L 146.892578 175.412109 L 153.729980 175.412109 L 153.729980 176.335938 Z " fill="rgb(0, 145, 146)" fill-opacity="1.000000" />
<path d="M 157.985352 170.631836 L 157.985352 173.978027 L 156.782227 173.978027 L 156.782227 170.631836 Z " fill="rgb(0, 145, 146)" fill-opacity="1.000000" />
<path d="M 196.208008 182.319336 L 195.251953 182.319336 L 188.414551 168.300781 L 189.370605 168.300781 Z " fill="rgb(255, 147, 0)" fill-opacity="1.000000" />
<path d="M 76.414551 169.319336 L 83.251953 155.300781 L 84.208008 155.300781 L 77.370605 169.319336 Z " fill="rgb(255, 147, 0)" fill-opacity="1.000000" />
<path d="M 100.562012 157.202148 L 102.071289 159.221680 L 101.244141 159.221680 L 99.498535 157.202148 Z " fill="rgb(0, 145, 146)" fill-opacity="1.000000" />
<path d="M 107.089355 163.830078 L 108.979980 163.830078 L 108.979980 166.000000 L 107.089355 166.000000 Z " fill="rgb(0, 145, 146)" fill-opacity="1.000000" />
<path d="M 163.374023 164.061035 L 165.049805 164.061035 L 165.049805 165.484375 L 163.857422 167.799316 L 162.783203 167.804688 L 163.374023 165.484375 Z " fill="rgb(0, 145, 146)" fill-opacity="1.000000" />
<path d="M 171.985352 157.631836 L 171.985352 160.978027 L 170.782227 160.978027 L 170.782227 157.631836 Z " fill="rgb(0, 145, 146)" fill-opacity="1.000000" />
<path d="M 189.208008 169.319336 L 188.251953 169.319336 L 181.414551 155.300781 L 182.370605 155.300781 Z " fill="rgb(255, 147, 0)" fill-opacity="1.000000" />
<path d="M 85.047363 85.722656 L 85.047363 81.995117 L 86.035645 81.995117 L 86.035645 85.722656 Q 86.035645 86.533691 86.322998 86.915039 Q 86.610352 87.296387 87.211914 87.296387 Q 87.910156 87.296387 88.280762 86.804932 Q 88.651367 86.313477 88.651367 85.395020 L 88.651367 81.995117 L 89.645020 81.995117 L 89.645020 88.000000 L 88.651367 88.000000 L 88.651367 87.097656 Q 88.388184 87.618652 87.934326 87.887207 Q 87.480469 88.155762 86.873535 88.155762 Q 85.949707 88.155762 85.498535 87.551514 Q 85.047363 86.947266 85.047363 85.722656 Z " fill="rgb(0, 150, 255)" fill-opacity="1.000000" />
<path d="M 83.414551 156.319336 L 90.251953 142.300781 L 91.208008 142.300781 L 84.370605 156.319336 Z " fill="rgb(255, 147, 0)" fill-opacity="1.000000" />
<path d="M 95.592285 144.116211 Q 94.877930 145.340820 94.526123 146.557373 Q 94.174316 147.773926 94.174316 149.009277 Q 94.174316 150.239258 94.526123 151.458496 Q 94.877930 152.677734 95.592285 153.913086 L 94.732910 153.913086 Q 93.921875 152.634766 93.524414 151.423584 Q 93.126953 150.212402 93.126953 149.009277 Q 93.126953 147.811523 93.524414 146.597656 Q 93.921875 145.383789 94.732910 144.116211 Z " fill="rgb(0, 145, 146)" fill-opacity="1.000000" />
<path d="M 119.789551 149.922363 L 119.789551 144.980957 L 120.879883 144.980957 L 120.879883 150.416504 Q 120.879883 151.001953 120.912109 151.251709 Q 120.944336 151.501465 121.024902 151.635742 Q 121.196777 151.952637 121.521729 152.113770 Q 121.846680 152.274902 122.308594 152.274902 Q 122.775879 152.274902 123.098145 152.113770 Q 123.420410 151.952637 123.597656 151.635742 Q 123.678223 151.501465 123.710449 151.254395 Q 123.742676 151.007324 123.742676 150.427246 L 123.742676 144.980957 L 124.827637 144.980957 L 124.827637 149.922363 Q 124.827637 151.152344 124.674561 151.670654 Q 124.521484 152.188965 124.145508 152.527344 Q 123.791016 152.844238 123.334473 153.000000 Q 122.877930 153.155762 122.308594 153.155762 Q 121.744629 153.155762 121.288086 153.000000 Q 120.831543 152.844238 120.471680 152.527344 Q 120.101074 152.194336 119.945312 151.665283 Q 119.789551 151.136230 119.789551 149.922363 Z " fill="rgb(0, 83, 146)" fill-opacity="1.000000" />
<path d="M 131.226074 147.193848 L 131.226074 148.160645 Q 130.801758 147.913574 130.372070 147.790039 Q 129.942383 147.666504 129.496582 147.666504 Q 128.825195 147.666504 128.494873 147.884033 Q 128.164551 148.101562 128.164551 148.547363 Q 128.164551 148.950195 128.411621 149.148926 Q 128.658691 149.347656 129.641602 149.535645 L 130.039062 149.610840 Q 130.774902 149.750488 131.153564 150.169434 Q 131.532227 150.588379 131.532227 151.259766 Q 131.532227 152.151367 130.898438 152.653564 Q 130.264648 153.155762 129.136719 153.155762 Q 128.690918 153.155762 128.202148 153.061768 Q 127.713379 152.967773 127.144043 152.779785 L 127.144043 151.759277 Q 127.697266 152.043945 128.202148 152.186279 Q 128.707031 152.328613 129.158203 152.328613 Q 129.813477 152.328613 130.173340 152.062744 Q 130.533203 151.796875 130.533203 151.318848 Q 130.533203 150.631348 129.217285 150.368164 L 129.174316 150.357422 L 128.803711 150.282227 Q 127.949707 150.115723 127.557617 149.720947 Q 127.165527 149.326172 127.165527 148.644043 Q 127.165527 147.779297 127.750977 147.309326 Q 128.336426 146.839355 129.421387 146.839355 Q 129.904785 146.839355 130.350586 146.927979 Q 130.796387 147.016602 131.226074 147.193848 Z " fill="rgb(0, 83, 146)" fill-opacity="1.000000" />
<path d="M 139.015625 149.498047 L 139.015625 149.981445 L 134.734863 149.981445 L 134.734863 150.013672 Q 134.691895 151.243652 135.204834 151.780762 Q 135.717773 152.317871 136.652344 152.317871 Q 137.125000 152.317871 137.640625 152.167480 Q 138.156250 152.017090 138.741699 151.710938 L 138.741699 152.693848 Q 138.177734 152.924805 137.654053 153.040283 Q 137.130371 153.155762 136.641602 153.155762 Q 135.239746 153.155762 134.450195 152.315186 Q 133.660645 151.474609 133.660645 149.997559 Q 133.660645 148.558105 134.434082 147.698730 Q 135.207520 146.839355 136.496582 146.839355 Q 137.645996 146.839355 138.309326 147.618164 Q 138.972656 148.396973 139.015625 149.498047 Z M 138.027344 149.208008 Q 137.962891 148.584961 137.573486 148.131104 Q 137.184082 147.677246 136.453613 147.677246 Q 135.739258 147.677246 135.277344 148.149902 Q 134.815430 148.622559 134.772461 149.213379 Z " fill="rgb(0, 83, 146)" fill-opacity="1.000000" />
<path d="M 146.203613 148.225098 Q 145.886719 147.978027 145.559082 147.865234 Q 145.231445 147.752441 144.839355 147.752441 Q 143.915527 147.752441 143.426758 148.332520 Q 142.937988 148.912598 142.937988 150.008301 L 142.937988 153.000000 L 141.944336 153.000000 L 141.944336 146.984375 L 142.937988 146.984375 L 142.937988 148.160645 Q 143.185059 147.521484 143.697998 147.180420 Q 144.210938 146.839355 144.914551 146.839355 Q 145.279785 146.839355 145.596680 146.930664 Q 145.913574 147.021973 146.203613 147.215332 Z " fill="rgb(0, 83, 146)" fill-opacity="1.000000" />
<path d="M 176.869141 144.116211 L 177.728516 144.116211 Q 178.539551 145.383789 178.937012 146.597656 Q 179.334473 147.811523 179.334473 149.009277 Q 179.334473 150.217773 178.937012 151.431641 Q 178.539551 152.645508 177.728516 153.913086 L 176.869141 153.913086 Q 177.583496 152.666992 177.935303 151.447754 Q 178.287109 150.228516 178.287109 149.009277 Q 178.287109 147.784668 177.935303 146.565430 Q 177.583496 145.346191 176.869141 144.116211 Z " fill="rgb(0, 145, 146)" fill-opacity="1.000000" />
<path d="M 181.414551 156.319336 L 188.251953 142.300781 L 189.208008 142.300781 L 182.370605 156.319336 Z " fill="rgb(255, 147, 0)" fill-opacity="1.000000" />
<path d="M 97.414551 143.319336 L 104.251953 129.300781 L 105.208008 129.300781 L 98.370605 143.319336 Z " fill="rgb(0, 145, 146)" fill-opacity="1.000000" />
<path d="M 175.208008 143.319336 L 174.251953 143.319336 L 167.414551 129.300781 L 168.370605 129.300781 Z " fill="rgb(0, 145, 146)" fill-opacity="1.000000" />
<path d="M 188.414551 143.319336 L 195.251953 129.300781 L 196.208008 129.300781 L 189.370605 143.319336 Z " fill="rgb(255, 147, 0)" fill-opacity="1.000000" />
<path d="M 107.089355 124.830078 L 108.979980 124.830078 L 108.979980 127.000000 L 107.089355 127.000000 Z " fill="rgb(0, 145, 146)" fill-opacity="1.000000" />
<path d="M 111.892578 124.335938 L 111.892578 123.412109 L 118.729980 123.412109 L 118.729980 124.335938 Z " fill="rgb(0, 145, 146)" fill-opacity="1.000000" />
<path d="M 118.892578 124.335938 L 118.892578 123.412109 L 125.729980 123.412109 L 125.729980 124.335938 Z " fill="rgb(0, 145, 146)" fill-opacity="1.000000" />
<path d="M 125.892578 124.335938 L 125.892578 123.412109 L 132.729980 123.412109 L 132.729980 124.335938 Z " fill="rgb(0, 145, 146)" fill-opacity="1.000000" />
<path d="M 132.892578 124.335938 L 132.892578 123.412109 L 139.729980 123.412109 L 139.729980 124.335938 Z " fill="rgb(0, 145, 146)" fill-opacity="1.000000" />
<path d="M 139.892578 124.335938 L 139.892578 123.412109 L 146.729980 123.412109 L 146.729980 124.335938 Z " fill="rgb(0, 145, 146)" fill-opacity="1.000000" />
<path d="M 146.892578 124.335938 L 146.892578 123.412109 L 153.729980 123.412109 L 153.729980 124.335938 Z " fill="rgb(0, 145, 146)" fill-opacity="1.000000" />
<path d="M 153.892578 124.335938 L 153.892578 123.412109 L 160.729980 123.412109 L 160.729980 124.335938 Z " fill="rgb(0, 145, 146)" fill-opacity="1.000000" />
<path d="M 163.089355 124.830078 L 164.979980 124.830078 L 164.979980 127.000000 L 163.089355 127.000000 Z " fill="rgb(0, 145, 146)" fill-opacity="1.000000" />
<path d="M 195.414551 130.319336 L 202.251953 116.300781 L 203.208008 116.300781 L 196.370605 130.319336 Z " fill="rgb(255, 147, 0)" fill-opacity="1.000000" />
<path d="M 133.208008 104.319336 L 132.251953 104.319336 L 125.414551 90.300781 L 126.370605 90.300781 Z " fill="rgb(255, 147, 0)" fill-opacity="1.000000" />
<path d="M 140.208008 117.319336 L 139.251953 117.319336 L 132.414551 103.300781 L 133.370605 103.300781 Z " fill="rgb(255, 147, 0)" fill-opacity="1.000000" />
<path d="M 202.414551 117.319336 L 209.251953 103.300781 L 210.208008 103.300781 L 203.370605 117.319336 Z " fill="rgb(255, 147, 0)" fill-opacity="1.000000" />
<path d="M 209.414551 104.319336 L 216.251953 90.300781 L 217.208008 90.300781 L 210.370605 104.319336 Z " fill="rgb(255, 147, 0)" fill-opacity="1.000000" />
<path d="M 96.226074 82.193848 L 96.226074 83.160645 Q 95.801758 82.913574 95.372070 82.790039 Q 94.942383 82.666504 94.496582 82.666504 Q 93.825195 82.666504 93.494873 82.884033 Q 93.164551 83.101562 93.164551 83.547363 Q 93.164551 83.950195 93.411621 84.148926 Q 93.658691 84.347656 94.641602 84.535645 L 95.039062 84.610840 Q 95.774902 84.750488 96.153564 85.169434 Q 96.532227 85.588379 96.532227 86.259766 Q 96.532227 87.151367 95.898438 87.653564 Q 95.264648 88.155762 94.136719 88.155762 Q 93.690918 88.155762 93.202148 88.061768 Q 92.713379 87.967773 92.144043 87.779785 L 92.144043 86.759277 Q 92.697266 87.043945 93.202148 87.186279 Q 93.707031 87.328613 94.158203 87.328613 Q 94.813477 87.328613 95.173340 87.062744 Q 95.533203 86.796875 95.533203 86.318848 Q 95.533203 85.631348 94.217285 85.368164 L 94.174316 85.357422 L 93.803711 85.282227 Q 92.949707 85.115723 92.557617 84.720947 Q 92.165527 84.326172 92.165527 83.644043 Q 92.165527 82.779297 92.750977 82.309326 Q 93.336426 81.839355 94.421387 81.839355 Q 94.904785 81.839355 95.350586 81.927979 Q 95.796387 82.016602 96.226074 82.193848 Z " fill="rgb(0, 150, 255)" fill-opacity="1.000000" />
<path d="M 104.015625 84.498047 L 104.015625 84.981445 L 99.734863 84.981445 L 99.734863 85.013672 Q 99.691895 86.243652 100.204834 86.780762 Q 100.717773 87.317871 101.652344 87.317871 Q 102.125000 87.317871 102.640625 87.167480 Q 103.156250 87.017090 103.741699 86.710938 L 103.741699 87.693848 Q 103.177734 87.924805 102.654053 88.040283 Q 102.130371 88.155762 101.641602 88.155762 Q 100.239746 88.155762 99.450195 87.315186 Q 98.660645 86.474609 98.660645 84.997559 Q 98.660645 83.558105 99.434082 82.698730 Q 100.207520 81.839355 101.496582 81.839355 Q 102.645996 81.839355 103.309326 82.618164 Q 103.972656 83.396973 104.015625 84.498047 Z M 103.027344 84.208008 Q 102.962891 83.584961 102.573486 83.131104 Q 102.184082 82.677246 101.453613 82.677246 Q 100.739258 82.677246 100.277344 83.149902 Q 99.815430 83.622559 99.772461 84.213379 Z " fill="rgb(0, 150, 255)" fill-opacity="1.000000" />
<path d="M 109.608398 82.752441 L 109.608398 79.642578 L 110.596680 79.642578 L 110.596680 88.000000 L 109.608398 88.000000 L 109.608398 87.242676 Q 109.361328 87.688477 108.950439 87.922119 Q 108.539551 88.155762 108.002441 88.155762 Q 106.912109 88.155762 106.286377 87.309814 Q 105.660645 86.463867 105.660645 84.976074 Q 105.660645 83.509766 106.289062 82.674561 Q 106.917480 81.839355 108.002441 81.839355 Q 108.544922 81.839355 108.958496 82.072998 Q 109.372070 82.306641 109.608398 82.752441 Z M 106.702637 84.997559 Q 106.702637 86.146973 107.067871 86.732422 Q 107.433105 87.317871 108.147461 87.317871 Q 108.861816 87.317871 109.235107 86.727051 Q 109.608398 86.136230 109.608398 84.997559 Q 109.608398 83.853516 109.235107 83.265381 Q 108.861816 82.677246 108.147461 82.677246 Q 107.433105 82.677246 107.067871 83.262695 Q 106.702637 83.848145 106.702637 84.997559 Z " fill="rgb(0, 150, 255)" fill-opacity="1.000000" />
<path d="M 118.574219 89.020508 L 118.574219 89.933594 L 112.000000 89.933594 L 112.000000 89.020508 Z " fill="rgb(0, 150, 255)" fill-opacity="1.000000" />
<path d="M 123.608398 82.752441 L 123.608398 79.642578 L 124.596680 79.642578 L 124.596680 88.000000 L 123.608398 88.000000 L 123.608398 87.242676 Q 123.361328 87.688477 122.950439 87.922119 Q 122.539551 88.155762 122.002441 88.155762 Q 120.912109 88.155762 120.286377 87.309814 Q 119.660645 86.463867 119.660645 84.976074 Q 119.660645 83.509766 120.289062 82.674561 Q 120.917480 81.839355 122.002441 81.839355 Q 122.544922 81.839355 122.958496 82.072998 Q 123.372070 82.306641 123.608398 82.752441 Z M 120.702637 84.997559 Q 120.702637 86.146973 121.067871 86.732422 Q 121.433105 87.317871 122.147461 87.317871 Q 122.861816 87.317871 123.235107 86.727051 Q 123.608398 86.136230 123.608398 84.997559 Q 123.608398 83.853516 123.235107 83.265381 Q 122.861816 82.677246 122.147461 82.677246 Q 121.433105 82.677246 121.067871 83.262695 Q 120.702637 83.848145 120.702637 84.997559 Z " fill="rgb(0, 150, 255)" fill-opacity="1.000000" />
<path d="M 132.015625 84.498047 L 132.015625 84.981445 L 127.734863 84.981445 L 127.734863 85.013672 Q 127.691895 86.243652 128.204834 86.780762 Q 128.717773 87.317871 129.652344 87.317871 Q 130.125000 87.317871 130.640625 87.167480 Q 131.156250 87.017090 131.741699 86.710938 L 131.741699 87.693848 Q 131.177734 87.924805 130.654053 88.040283 Q 130.130371 88.155762 129.641602 88.155762 Q 128.239746 88.155762 127.450195 87.315186 Q 126.660645 86.474609 126.660645 84.997559 Q 126.660645 83.558105 127.434082 82.698730 Q 128.207520 81.839355 129.496582 81.839355 Q 130.645996 81.839355 131.309326 82.618164 Q 131.972656 83.396973 132.015625 84.498047 Z M 131.027344 84.208008 Q 130.962891 83.584961 130.573486 83.131104 Q 130.184082 82.677246 129.453613 82.677246 Q 128.739258 82.677246 128.277344 83.149902 Q 127.815430 83.622559 127.772461 84.213379 Z " fill="rgb(0, 150, 255)" fill-opacity="1.000000" />
<path d="M 133.537109 81.984375 L 134.562988 81.984375 L 136.308594 87.033203 L 138.059570 81.984375 L 139.085449 81.984375 L 136.947754 88.000000 L 135.674805 88.000000 Z " fill="rgb(0, 150, 255)" fill-opacity="1.000000" />
<path d="M 141.697266 82.005859 L 144.227051 82.005859 L 144.227051 87.231934 L 146.187500 87.231934 L 146.187500 88.000000 L 141.278320 88.000000 L 141.278320 87.231934 L 143.238770 87.231934 L 143.238770 82.773926 L 141.697266 82.773926 Z M 143.238770 79.669434 L 144.227051 79.669434 L 144.227051 80.915527 L 143.238770 80.915527 Z " fill="rgb(0, 150, 255)" fill-opacity="1.000000" />
<path d="M 152.698730 87.693848 Q 152.301270 87.924805 151.879639 88.040283 Q 151.458008 88.155762 151.017578 88.155762 Q 149.621094 88.155762 148.834229 87.317871 Q 148.047363 86.479980 148.047363 84.997559 Q 148.047363 83.515137 148.834229 82.677246 Q 149.621094 81.839355 151.017578 81.839355 Q 151.452637 81.839355 151.866211 81.952148 Q 152.279785 82.064941 152.698730 82.301270 L 152.698730 83.337891 Q 152.306641 82.988770 151.911865 82.833008 Q 151.517090 82.677246 151.017578 82.677246 Q 150.088379 82.677246 149.588867 83.278809 Q 149.089355 83.880371 149.089355 84.997559 Q 149.089355 86.109375 149.591553 86.713623 Q 150.093750 87.317871 151.017578 87.317871 Q 151.533203 87.317871 151.941406 87.159424 Q 152.349609 87.000977 152.698730 86.667969 Z " fill="rgb(0, 150, 255)" fill-opacity="1.000000" />
<path d="M 160.015625 84.498047 L 160.015625 84.981445 L 155.734863 84.981445 L 155.734863 85.013672 Q 155.691895 86.243652 156.204834 86.780762 Q 156.717773 87.317871 157.652344 87.317871 Q 158.125000 87.317871 158.640625 87.167480 Q 159.156250 87.017090 159.741699 86.710938 L 159.741699 87.693848 Q 159.177734 87.924805 158.654053 88.040283 Q 158.130371 88.155762 157.641602 88.155762 Q 156.239746 88.155762 155.450195 87.315186 Q 154.660645 86.474609 154.660645 84.997559 Q 154.660645 83.558105 155.434082 82.698730 Q 156.207520 81.839355 157.496582 81.839355 Q 158.645996 81.839355 159.309326 82.618164 Q 159.972656 83.396973 160.015625 84.498047 Z M 159.027344 84.208008 Q 158.962891 83.584961 158.573486 83.131104 Q 158.184082 82.677246 157.453613 82.677246 Q 156.739258 82.677246 156.277344 83.149902 Q 155.815430 83.622559 155.772461 84.213379 Z " fill="rgb(0, 150, 255)" fill-opacity="1.000000" />
<path d="M 216.414551 91.319336 L 223.251953 77.300781 L 224.208008 77.300781 L 217.370605 91.319336 Z " fill="rgb(255, 147, 0)" fill-opacity="1.000000" />
<path d="M 34.892578 72.335938 L 34.892578 71.412109 L 41.729980 71.412109 L 41.729980 72.335938 Z " fill="rgb(0, 145, 146)" fill-opacity="1.000000" />
<path d="M 41.892578 72.335938 L 41.892578 71.412109 L 48.729980 71.412109 L 48.729980 72.335938 Z " fill="rgb(0, 145, 146)" fill-opacity="1.000000" />
<path d="M 48.892578 72.335938 L 48.892578 71.412109 L 55.729980 71.412109 L 55.729980 72.335938 Z " fill="rgb(0, 145, 146)" fill-opacity="1.000000" />
<path d="M 55.892578 72.335938 L 55.892578 71.412109 L 62.729980 71.412109 L 62.729980 72.335938 Z " fill="rgb(0, 145, 146)" fill-opacity="1.000000" />
<path d="M 62.892578 72.335938 L 62.892578 71.412109 L 69.729980 71.412109 L 69.729980 72.335938 Z " fill="rgb(0, 145, 146)" fill-opacity="1.000000" />
<path d="M 73.985352 66.631836 L 73.985352 69.978027 L 72.782227 69.978027 L 72.782227 66.631836 Z " fill="rgb(0, 145, 146)" fill-opacity="1.000000" />
<path d="M 119.208008 78.319336 L 118.251953 78.319336 L 111.414551 64.300781 L 112.370605 64.300781 Z " fill="rgb(255, 147, 0)" fill-opacity="1.000000" />
<path d="M 223.414551 78.319336 L 230.251953 64.300781 L 231.208008 64.300781 L 224.370605 78.319336 Z " fill="rgb(255, 147, 0)" fill-opacity="1.000000" />
<path d="M 23.089355 59.830078 L 24.979980 59.830078 L 24.979980 62.000000 L 23.089355 62.000000 Z " fill="rgb(0, 145, 146)" fill-opacity="1.000000" />
<path d="M 79.374023 60.061035 L 81.049805 60.061035 L 81.049805 61.484375 L 79.857422 63.799316 L 78.783203 63.804688 L 79.374023 61.484375 Z " fill="rgb(0, 145, 146)" fill-opacity="1.000000" />
<path d="M 87.985352 53.631836 L 87.985352 56.978027 L 86.782227 56.978027 L 86.782227 53.631836 Z " fill="rgb(0, 145, 146)" fill-opacity="1.000000" />
<path d="M 112.208008 65.319336 L 111.251953 65.319336 L 104.414551 51.300781 L 105.370605 51.300781 Z " fill="rgb(255, 147, 0)" fill-opacity="1.000000" />
<path d="M 231.032227 59.142578 L 237.590332 55.866211 L 237.590332 62.418945 Z " fill="rgb(255, 147, 0)" fill-opacity="1.000000" />
<path d="M 254.562012 53.202148 L 256.071289 55.221680 L 255.244141 55.221680 L 253.498535 53.202148 Z " fill="rgb(0, 145, 146)" fill-opacity="1.000000" />
<path d="M 258.892578 59.335938 L 258.892578 58.412109 L 265.729980 58.412109 L 265.729980 59.335938 Z " fill="rgb(0, 145, 146)" fill-opacity="1.000000" />
<path d="M 265.892578 59.335938 L 265.892578 58.412109 L 272.729980 58.412109 L 272.729980 59.335938 Z " fill="rgb(0, 145, 146)" fill-opacity="1.000000" />
<path d="M 272.892578 59.335938 L 272.892578 58.412109 L 279.729980 58.412109 L 279.729980 59.335938 Z " fill="rgb(0, 145, 146)" fill-opacity="1.000000" />
<path d="M 279.892578 59.335938 L 279.892578 58.412109 L 286.729980 58.412109 L 286.729980 59.335938 Z " fill="rgb(0, 145, 146)" fill-opacity="1.000000" />
<path d="M 286.892578 59.335938 L 286.892578 58.412109 L 293.729980 58.412109 L 293.729980 59.335938 Z " fill="rgb(0, 145, 146)" fill-opacity="1.000000" />
<path d="M 297.985352 53.631836 L 297.985352 56.978027 L 296.782227 56.978027 L 296.782227 53.631836 Z " fill="rgb(0, 145, 146)" fill-opacity="1.000000" />
<path d="M 32.608398 43.752441 L 32.608398 40.642578 L 33.596680 40.642578 L 33.596680 49.000000 L 32.608398 49.000000 L 32.608398 48.242676 Q 32.361328 48.688477 31.950439 48.922119 Q 31.539551 49.155762 31.002441 49.155762 Q 29.912109 49.155762 29.286377 48.309814 Q 28.660645 47.463867 28.660645 45.976074 Q 28.660645 44.509766 29.289062 43.674561 Q 29.917480 42.839355 31.002441 42.839355 Q 31.544922 42.839355 31.958496 43.072998 Q 32.372070 43.306641 32.608398 43.752441 Z M 29.702637 45.997559 Q 29.702637 47.146973 30.067871 47.732422 Q 30.433105 48.317871 31.147461 48.317871 Q 31.861816 48.317871 32.235107 47.727051 Q 32.608398 47.136230 32.608398 45.997559 Q 32.608398 44.853516 32.235107 44.265381 Q 31.861816 43.677246 31.147461 43.677246 Q 30.433105 43.677246 30.067871 44.262695 Q 29.702637 44.848145 29.702637 45.997559 Z " fill="rgb(0, 83, 146)" fill-opacity="1.000000" />
<path d="M 41.015625 45.498047 L 41.015625 45.981445 L 36.734863 45.981445 L 36.734863 46.013672 Q 36.691895 47.243652 37.204834 47.780762 Q 37.717773 48.317871 38.652344 48.317871 Q 39.125000 48.317871 39.640625 48.167480 Q 40.156250 48.017090 40.741699 47.710938 L 40.741699 48.693848 Q 40.177734 48.924805 39.654053 49.040283 Q 39.130371 49.155762 38.641602 49.155762 Q 37.239746 49.155762 36.450195 48.315186 Q 35.660645 47.474609 35.660645 45.997559 Q 35.660645 44.558105 36.434082 43.698730 Q 37.207520 42.839355 38.496582 42.839355 Q 39.645996 42.839355 40.309326 43.618164 Q 40.972656 44.396973 41.015625 45.498047 Z M 40.027344 45.208008 Q 39.962891 44.584961 39.573486 44.131104 Q 39.184082 43.677246 38.453613 43.677246 Q 37.739258 43.677246 37.277344 44.149902 Q 36.815430 44.622559 36.772461 45.213379 Z " fill="rgb(0, 83, 146)" fill-opacity="1.000000" />
<path d="M 42.537109 42.984375 L 43.562988 42.984375 L 45.308594 48.033203 L 47.059570 42.984375 L 48.085449 42.984375 L 45.947754 49.000000 L 44.674805 49.000000 Z " fill="rgb(0, 83, 146)" fill-opacity="1.000000" />
<path d="M 50.697266 43.005859 L 53.227051 43.005859 L 53.227051 48.231934 L 55.187500 48.231934 L 55.187500 49.000000 L 50.278320 49.000000 L 50.278320 48.231934 L 52.238770 48.231934 L 52.238770 43.773926 L 50.697266 43.773926 Z M 52.238770 40.669434 L 53.227051 40.669434 L 53.227051 41.915527 L 52.238770 41.915527 Z " fill="rgb(0, 83, 146)" fill-opacity="1.000000" />
<path d="M 61.698730 48.693848 Q 61.301270 48.924805 60.879639 49.040283 Q 60.458008 49.155762 60.017578 49.155762 Q 58.621094 49.155762 57.834229 48.317871 Q 57.047363 47.479980 57.047363 45.997559 Q 57.047363 44.515137 57.834229 43.677246 Q 58.621094 42.839355 60.017578 42.839355 Q 60.452637 42.839355 60.866211 42.952148 Q 61.279785 43.064941 61.698730 43.301270 L 61.698730 44.337891 Q 61.306641 43.988770 60.911865 43.833008 Q 60.517090 43.677246 60.017578 43.677246 Q 59.088379 43.677246 58.588867 44.278809 Q 58.089355 44.880371 58.089355 45.997559 Q 58.089355 47.109375 58.591553 47.713623 Q 59.093750 48.317871 60.017578 48.317871 Q 60.533203 48.317871 60.941406 48.159424 Q 61.349609 48.000977 61.698730 47.667969 Z " fill="rgb(0, 83, 146)" fill-opacity="1.000000" />
<path d="M 69.015625 45.498047 L 69.015625 45.981445 L 64.734863 45.981445 L 64.734863 46.013672 Q 64.691895 47.243652 65.204834 47.780762 Q 65.717773 48.317871 66.652344 48.317871 Q 67.125000 48.317871 67.640625 48.167480 Q 68.156250 48.017090 68.741699 47.710938 L 68.741699 48.693848 Q 68.177734 48.924805 67.654053 49.040283 Q 67.130371 49.155762 66.641602 49.155762 Q 65.239746 49.155762 64.450195 48.315186 Q 63.660645 47.474609 63.660645 45.997559 Q 63.660645 44.558105 64.434082 43.698730 Q 65.207520 42.839355 66.496582 42.839355 Q 67.645996 42.839355 68.309326 43.618164 Q 68.972656 44.396973 69.015625 45.498047 Z M 68.027344 45.208008 Q 67.962891 44.584961 67.573486 44.131104 Q 67.184082 43.677246 66.453613 43.677246 Q 65.739258 43.677246 65.277344 44.149902 Q 64.815430 44.622559 64.772461 45.213379 Z " fill="rgb(0, 83, 146)" fill-opacity="1.000000" />
<path d="M 92.869141 40.116211 L 93.728516 40.116211 Q 94.539551 41.383789 94.937012 42.597656 Q 95.334473 43.811523 95.334473 45.009277 Q 95.334473 46.217773 94.937012 47.431641 Q 94.539551 48.645508 93.728516 49.913086 L 92.869141 49.913086 Q 93.583496 48.666992 93.935303 47.447754 Q 94.287109 46.228516 94.287109 45.009277 Q 94.287109 43.784668 93.935303 42.565430 Q 93.583496 41.346191 92.869141 40.116211 Z " fill="rgb(0, 145, 146)" fill-opacity="1.000000" />
<path d="M 98.032227 49.418945 L 98.032227 42.866211 L 104.590332 46.142578 Z " fill="rgb(255, 147, 0)" fill-opacity="1.000000" />
<path d="M 240.562012 40.202148 L 242.071289 42.221680 L 241.244141 42.221680 L 239.498535 40.202148 Z " fill="rgb(0, 145, 146)" fill-opacity="1.000000" />
<path d="M 247.089355 46.830078 L 248.979980 46.830078 L 248.979980 49.000000 L 247.089355 49.000000 Z " fill="rgb(0, 145, 146)" fill-opacity="1.000000" />
<path d="M 303.374023 47.061035 L 305.049805 47.061035 L 305.049805 48.484375 L 303.857422 50.799316 L 302.783203 50.804688 L 303.374023 48.484375 Z " fill="rgb(0, 145, 146)" fill-opacity="1.000000" />
<path d="M 311.985352 40.631836 L 311.985352 43.978027 L 310.782227 43.978027 L 310.782227 40.631836 Z " fill="rgb(0, 145, 146)" fill-opacity="1.000000" />
<path d="M 13.414551 39.319336 L 20.251953 25.300781 L 21.208008 25.300781 L 14.370605 39.319336 Z " fill="rgb(0, 145, 146)" fill-opacity="1.000000" />
<path d="M 91.208008 39.319336 L 90.251953 39.319336 L 83.414551 25.300781 L 84.370605 25.300781 Z " fill="rgb(0, 145, 146)" fill-opacity="1.000000" />
<path d="M 235.592285 27.116211 Q 234.877930 28.340820 234.526123 29.557373 Q 234.174316 30.773926 234.174316 32.009277 Q 234.174316 33.239258 234.526123 34.458496 Q 234.877930 35.677734 235.592285 36.913086 L 234.732910 36.913086 Q 233.921875 35.634766 233.524414 34.423584 Q 233.126953 33.212402 233.126953 32.009277 Q 233.126953 30.811523 233.524414 29.597656 Q 233.921875 28.383789 234.732910 27.116211 Z " fill="rgb(0, 145, 146)" fill-opacity="1.000000" />
<path d="M 265.015625 32.498047 L 265.015625 32.981445 L 260.734863 32.981445 L 260.734863 33.013672 Q 260.691895 34.243652 261.204834 34.780762 Q 261.717773 35.317871 262.652344 35.317871 Q 263.125000 35.317871 263.640625 35.167480 Q 264.156250 35.017090 264.741699 34.710938 L 264.741699 35.693848 Q 264.177734 35.924805 263.654053 36.040283 Q 263.130371 36.155762 262.641602 36.155762 Q 261.239746 36.155762 260.450195 35.315186 Q 259.660645 34.474609 259.660645 32.997559 Q 259.660645 31.558105 260.434082 30.698730 Q 261.207520 29.839355 262.496582 29.839355 Q 263.645996 29.839355 264.309326 30.618164 Q 264.972656 31.396973 265.015625 32.498047 Z M 264.027344 32.208008 Q 263.962891 31.584961 263.573486 31.131104 Q 263.184082 30.677246 262.453613 30.677246 Q 261.739258 30.677246 261.277344 31.149902 Q 260.815430 31.622559 260.772461 32.213379 Z " fill="rgb(0, 83, 146)" fill-opacity="1.000000" />
<path d="M 269.630859 30.596680 Q 269.813477 30.209961 270.095459 30.024658 Q 270.377441 29.839355 270.774902 29.839355 Q 271.500000 29.839355 271.798096 30.400635 Q 272.096191 30.961914 272.096191 32.514160 L 272.096191 36.000000 L 271.193848 36.000000 L 271.193848 32.557129 Q 271.193848 31.284180 271.051514 30.975342 Q 270.909180 30.666504 270.533203 30.666504 Q 270.103516 30.666504 269.945068 30.996826 Q 269.786621 31.327148 269.786621 32.557129 L 269.786621 36.000000 L 268.884277 36.000000 L 268.884277 32.557129 Q 268.884277 31.268066 268.731201 30.967285 Q 268.578125 30.666504 268.180664 30.666504 Q 267.788574 30.666504 267.635498 30.996826 Q 267.482422 31.327148 267.482422 32.557129 L 267.482422 36.000000 L 266.585449 36.000000 L 266.585449 29.984375 L 267.482422 29.984375 L 267.482422 30.500000 Q 267.659668 30.177734 267.925537 30.008545 Q 268.191406 29.839355 268.529785 29.839355 Q 268.937988 29.839355 269.209229 30.027344 Q 269.480469 30.215332 269.630859 30.596680 Z " fill="rgb(0, 83, 146)" fill-opacity="1.000000" />
<path d="M 276.770508 32.976074 L 276.442871 32.976074 Q 275.578125 32.976074 275.140381 33.279541 Q 274.702637 33.583008 274.702637 34.184570 Q 274.702637 34.727051 275.030273 35.027832 Q 275.357910 35.328613 275.937988 35.328613 Q 276.754395 35.328613 277.221680 34.761963 Q 277.688965 34.195312 277.694336 33.196289 L 277.694336 32.976074 Z M 278.687988 32.567871 L 278.687988 36.000000 L 277.694336 36.000000 L 277.694336 35.108398 Q 277.377441 35.645508 276.896729 35.900635 Q 276.416016 36.155762 275.728516 36.155762 Q 274.810059 36.155762 274.262207 35.637451 Q 273.714355 35.119141 273.714355 34.249023 Q 273.714355 33.244629 274.388428 32.723633 Q 275.062500 32.202637 276.367676 32.202637 L 277.694336 32.202637 L 277.694336 32.046875 Q 277.688965 31.327148 277.329102 31.002197 Q 276.969238 30.677246 276.179688 30.677246 Q 275.674805 30.677246 275.159180 30.822266 Q 274.643555 30.967285 274.154785 31.246582 L 274.154785 30.258301 Q 274.702637 30.048828 275.204834 29.944092 Q 275.707031 29.839355 276.179688 29.839355 Q 276.926270 29.839355 277.455322 30.059570 Q 277.984375 30.279785 278.312012 30.720215 Q 278.516113 30.988770 278.602051 31.383545 Q 278.687988 31.778320 278.687988 32.567871 Z " fill="rgb(0, 83, 146)" fill-opacity="1.000000" />
<path d="M 281.697266 30.005859 L 284.227051 30.005859 L 284.227051 35.231934 L 286.187500 35.231934 L 286.187500 36.000000 L 281.278320 36.000000 L 281.278320 35.231934 L 283.238770 35.231934 L 283.238770 30.773926 L 281.697266 30.773926 Z M 283.238770 27.669434 L 284.227051 27.669434 L 284.227051 28.915527 L 283.238770 28.915527 Z " fill="rgb(0, 83, 146)" fill-opacity="1.000000" />
<path d="M 290.861816 33.824707 Q 290.861816 34.490723 291.106201 34.829102 Q 291.350586 35.167480 291.828613 35.167480 L 292.983398 35.167480 L 292.983398 36.000000 L 291.731934 36.000000 Q 290.845703 36.000000 290.359619 35.433350 Q 289.873535 34.866699 289.873535 33.824707 L 289.873535 28.383789 L 288.289062 28.383789 L 288.289062 27.610352 L 290.861816 27.610352 Z " fill="rgb(0, 83, 146)" fill-opacity="1.000000" />
<path d="M 316.869141 27.116211 L 317.728516 27.116211 Q 318.539551 28.383789 318.937012 29.597656 Q 319.334473 30.811523 319.334473 32.009277 Q 319.334473 33.217773 318.937012 34.431641 Q 318.539551 35.645508 317.728516 36.913086 L 316.869141 36.913086 Q 317.583496 35.666992 317.935303 34.447754 Q 318.287109 33.228516 318.287109 32.009277 Q 318.287109 30.784668 317.935303 29.565430 Q 317.583496 28.346191 316.869141 27.116211 Z " fill="rgb(0, 145, 146)" fill-opacity="1.000000" />
<path d="M 23.089355 20.830078 L 24.979980 20.830078 L 24.979980 23.000000 L 23.089355 23.000000 Z " fill="rgb(0, 145, 146)" fill-opacity="1.000000" />
<path d="M 27.892578 20.335938 L 27.892578 19.412109 L 34.729980 19.412109 L 34.729980 20.335938 Z " fill="rgb(0, 145, 146)" fill-opacity="1.000000" />
<path d="M 34.892578 20.335938 L 34.892578 19.412109 L 41.729980 19.412109 L 41.729980 20.335938 Z " fill="rgb(0, 145, 146)" fill-opacity="1.000000" />
<path d="M 41.892578 20.335938 L 41.892578 19.412109 L 48.729980 19.412109 L 48.729980 20.335938 Z " fill="rgb(0, 145, 146)" fill-opacity="1.000000" />
<path d="M 48.892578 20.335938 L 48.892578 19.412109 L 55.729980 19.412109 L 55.729980 20.335938 Z " fill="rgb(0, 145, 146)" fill-opacity="1.000000" />
<path d="M 55.892578 20.335938 L 55.892578 19.412109 L 62.729980 19.412109 L 62.729980 20.335938 Z " fill="rgb(0, 145, 146)" fill-opacity="1.000000" />
<path d="M 62.892578 20.335938 L 62.892578 19.412109 L 69.729980 19.412109 L 69.729980 20.335938 Z " fill="rgb(0, 145, 146)" fill-opacity="1.000000" />
<path d="M 69.892578 20.335938 L 69.892578 19.412109 L 76.729980 19.412109 L 76.729980 20.335938 Z " fill="rgb(0, 145, 146)" fill-opacity="1.000000" />
<path d="M 79.089355 20.830078 L 80.979980 20.830078 L 80.979980 23.000000 L 79.089355 23.000000 Z " fill="rgb(0, 145, 146)" fill-opacity="1.000000" />
<path d="M 237.414551 26.319336 L 244.251953 12.300781 L 245.208008 12.300781 L 238.370605 26.319336 Z " fill="rgb(0, 145, 146)" fill-opacity="1.000000" />
<path d="M 315.208008 26.319336 L 314.251953 26.319336 L 307.414551 12.300781 L 308.370605 12.300781 Z " fill="rgb(0, 145, 146)" fill-opacity="1.000000" />
<path d="M 247.089355 7.830078 L 248.979980 7.830078 L 248.979980 10.000000 L 247.089355 10.000000 Z " fill="rgb(0, 145, 146)" fill-opacity="1.000000" />
<path d="M 251.892578 7.335938 L 251.892578 6.412109 L 258.729980 6.412109 L 258.729980 7.335938 Z " fill="rgb(0, 145, 146)" fill-opacity="1.000000" />
<path d="M 258.892578 7.335938 L 258.892578 6.412109 L 265.729980 6.412109 L 265.729980 7.335938 Z " fill="rgb(0, 145, 146)" fill-opacity="1.000000" />
<path d="M 265.892578 7.335938 L 265.892578 6.412109 L 272.729980 6.412109 L 272.729980 7.335938 Z " fill="rgb(0, 145, 146)" fill-opacity="1.000000" />
<path d="M 272.892578 7.335938 L 272.892578 6.412109 L 279.729980 6.412109 L 279.729980 7.335938 Z " fill="rgb(0, 145, 146)" fill-opacity="1.000000" />
<path d="M 279.892578 7.335938 L 279.892578 6.412109 L 286.729980 6.412109 L 286.729980 7.335938 Z " fill="rgb(0, 145, 146)" fill-opacity="1.000000" />
<path d="M 286.892578 7.335938 L 286.892578 6.412109 L 293.729980 6.412109 L 293.729980 7.335938 Z " fill="rgb(0, 145, 146)" fill-opacity="1.000000" />
<path d="M 293.892578 7.335938 L 293.892578 6.412109 L 300.729980 6.412109 L 300.729980 7.335938 Z " fill="rgb(0, 145, 146)" fill-opacity="1.000000" />
<path d="M 303.089355 7.830078 L 304.979980 7.830078 L 304.979980 10.000000 L 303.089355 10.000000 Z " fill="rgb(0, 145, 146)" fill-opacity="1.000000" />
</svg>